{"glyphs":{"0":{"ha":650,"x_min":51,"x_max":589,"o":"m 349 921 q 321 950 349 950 q 292 921 292 950 l 292 268 q 321 240 292 240 q 349 268 349 240 l 349 921 m 589 268 q 568 165 589 214 q 510 80 547 117 q 425 22 474 43 q 321 0 376 0 q 215 21 264 0 q 130 78 167 42 q 72 164 93 115 q 51 268 51 213 l 51 921 q 73 1027 51 978 q 131 1113 94 1076 q 217 1169 168 1149 q 321 1190 265 1190 q 424 1169 375 1190 q 510 1111 474 1147 q 567 1026 546 1075 q 589 921 589 976 l 589 268 z "},"1":{"ha":481,"x_min":83,"x_max":410,"o":"m 410 0 l 169 0 l 169 872 l 83 872 l 85 1113 q 151 1128 132 1113 q 169 1190 169 1143 l 410 1190 l 410 0 z "},"2":{"ha":657,"x_min":51,"x_max":589,"o":"m 589 0 l 51 0 l 51 268 q 129 519 51 381 q 271 739 132 529 q 349 921 349 857 q 321 950 349 950 q 292 921 292 950 l 292 843 l 51 843 l 51 921 q 73 1027 51 978 q 131 1113 94 1076 q 217 1169 168 1149 q 321 1190 265 1190 q 424 1169 375 1190 q 510 1111 474 1147 q 567 1026 546 1075 q 589 921 589 976 q 511 672 589 813 l 369 449 q 292 268 292 325 l 292 240 l 589 240 l 589 0 z "},"3":{"ha":650,"x_min":51,"x_max":589,"o":"m 589 268 q 568 165 589 214 q 510 80 547 117 q 425 22 474 43 q 321 0 376 0 q 215 21 264 0 q 130 78 167 42 q 72 164 93 115 q 51 268 51 213 l 51 325 l 292 325 q 292 320 292 324 q 290 310 292 317 l 290 289 q 321 240 290 240 q 349 268 349 240 l 349 433 q 218 475 349 475 l 210 475 l 210 715 l 256 715 q 349 746 349 715 l 349 921 q 321 950 349 950 q 292 921 292 950 l 292 828 l 51 828 l 51 921 q 73 1027 51 978 q 131 1113 94 1076 q 217 1169 168 1149 q 321 1190 265 1190 q 424 1169 375 1190 q 510 1111 474 1147 q 567 1026 546 1075 q 589 921 589 976 l 589 710 q 528 594 589 644 q 589 493 589 546 l 589 268 z "},"4":{"ha":668,"x_min":35,"x_max":628,"o":"m 628 475 l 571 475 l 571 0 l 331 0 l 331 475 l 35 475 l 35 1190 l 275 1190 l 275 715 l 331 715 l 331 1190 l 571 1190 l 571 715 l 628 715 l 628 475 z "},"5":{"ha":603,"x_min":51,"x_max":589,"o":"m 589 268 q 568 165 589 214 q 510 80 547 117 q 425 22 474 43 q 321 0 376 0 q 215 21 264 0 q 130 78 167 42 q 72 164 93 115 q 51 268 51 213 l 51 435 l 292 435 l 292 268 q 321 240 292 240 q 349 268 349 240 l 349 596 q 321 625 349 625 q 290 578 290 625 l 290 560 q 292 546 292 553 l 51 546 l 51 1190 l 558 1190 l 558 950 l 292 950 l 292 849 q 369 867 328 867 q 454 844 414 867 q 524 785 494 822 q 572 698 554 747 q 589 596 589 649 l 589 268 z "},"6":{"ha":650,"x_min":51,"x_max":589,"o":"m 349 519 q 321 547 349 547 q 292 511 292 547 l 292 268 q 321 240 292 240 q 349 268 349 240 l 349 519 m 589 268 q 568 165 589 214 q 510 80 547 117 q 425 22 474 43 q 321 0 376 0 q 215 21 264 0 q 130 78 167 42 q 72 164 93 115 q 51 268 51 213 l 51 921 q 73 1027 51 978 q 131 1113 94 1076 q 217 1169 168 1149 q 321 1190 265 1190 q 424 1169 375 1190 q 510 1111 474 1147 q 567 1026 546 1075 q 589 921 589 976 l 589 828 l 349 828 l 349 921 q 321 950 349 950 q 292 921 292 950 l 292 786 q 306 788 299 788 q 321 788 313 788 q 424 766 375 788 q 509 708 472 744 q 567 624 546 672 q 589 519 589 575 l 589 268 z "},"7":{"ha":632,"x_min":47,"x_max":583,"o":"m 338 0 l 97 0 l 321 950 l 47 950 l 47 1190 l 583 1190 l 583 1029 l 338 0 z "},"8":{"ha":650,"x_min":51,"x_max":589,"o":"m 349 447 q 318 474 349 474 q 292 447 292 474 l 292 268 q 321 240 292 240 q 349 268 349 240 l 349 447 m 349 921 q 321 950 349 950 q 292 921 292 950 l 292 742 q 322 715 292 715 q 349 742 349 715 l 349 921 m 589 268 q 568 165 589 214 q 510 80 547 117 q 425 22 474 43 q 321 0 376 0 q 215 21 264 0 q 130 78 167 42 q 72 164 93 115 q 51 268 51 213 l 51 447 q 106 593 51 524 q 51 742 51 661 l 51 921 q 73 1027 51 978 q 131 1113 94 1076 q 217 1169 168 1149 q 321 1190 265 1190 q 424 1169 375 1190 q 510 1111 474 1147 q 567 1026 546 1075 q 589 921 589 976 l 589 742 q 535 594 589 661 q 589 447 589 529 l 589 268 z "},"9":{"ha":650,"x_min":51,"x_max":589,"o":"m 349 921 q 321 950 349 950 q 292 921 292 950 l 292 686 q 321 656 292 656 q 349 693 349 656 l 349 921 m 589 268 q 568 165 589 214 q 510 80 547 117 q 425 22 474 43 q 321 0 376 0 q 215 21 264 0 q 130 78 167 42 q 72 164 93 115 q 51 268 51 213 l 51 363 l 292 363 l 292 268 q 321 240 292 240 q 349 268 349 240 l 349 418 q 335 416 342 417 q 321 415 328 415 q 215 437 264 415 q 130 495 167 458 q 72 581 93 532 q 51 686 51 631 l 51 921 q 73 1027 51 978 q 131 1113 94 1076 q 217 1169 168 1149 q 321 1190 265 1190 q 424 1169 375 1190 q 510 1111 474 1147 q 567 1026 546 1075 q 589 921 589 976 l 589 268 z "}," ":{"ha":315,"x_min":0,"x_max":0,"o":""},"!":{"ha":349,"x_min":49,"x_max":289,"o":"m 289 135 q 257 40 289 79 q 172 0 225 0 q 123 11 146 0 q 83 41 100 22 q 58 84 67 60 q 49 135 49 108 q 58 186 49 161 q 83 229 67 211 q 123 258 100 247 q 172 269 146 269 q 255 231 221 269 q 289 135 289 193 m 289 1086 q 286 1001 289 1042 q 278 917 283 961 q 265 822 272 874 q 250 704 258 771 q 233 552 242 638 q 215 354 224 467 l 122 354 q 103 548 111 461 q 86 704 96 635 q 75 769 82 735 q 63 848 68 803 q 53 951 57 893 q 49 1086 49 1008 q 81 1177 49 1142 q 168 1213 114 1213 q 255 1177 221 1213 q 289 1086 289 1142 z "},"\"":{"ha":460,"x_min":57,"x_max":432,"o":"m 238 1086 q 228 1020 238 1053 q 206 954 218 988 q 181 883 193 921 q 164 801 168 846 l 131 801 q 117 873 124 839 q 100 938 111 907 l 72 1010 q 57 1086 57 1050 q 81 1177 57 1142 q 146 1213 106 1213 q 213 1176 189 1213 q 238 1086 238 1139 m 432 1086 q 417 1010 432 1049 q 388 935 401 971 q 357 801 368 879 l 325 801 q 313 873 319 839 q 294 938 306 907 l 265 1010 q 251 1086 251 1051 q 275 1178 251 1143 q 340 1213 299 1213 q 407 1176 382 1213 q 432 1086 432 1139 z "},"#":{"ha":775,"x_min":44,"x_max":732,"o":"m 279 374 l 454 374 l 506 617 l 328 617 l 279 374 m 529 375 l 675 375 l 675 276 l 511 276 l 464 58 l 390 58 l 435 276 l 261 276 l 215 58 l 140 58 l 183 276 l 44 276 l 44 375 l 204 375 l 251 615 l 101 615 l 101 714 l 274 714 l 313 928 l 390 928 l 350 714 l 522 714 l 567 928 l 642 928 l 600 714 l 732 714 l 732 615 l 579 615 l 529 375 z "},"$":{"ha":647,"x_min":63,"x_max":600,"o":"m 600 401 q 583 309 600 353 q 537 230 567 265 q 466 170 507 194 q 376 138 425 146 q 385 78 382 99 q 388 57 388 58 q 331 13 388 13 q 275 57 275 13 q 278 78 275 58 q 286 138 281 99 q 197 169 238 146 q 126 228 157 193 q 79 308 96 264 q 63 401 63 353 l 63 482 l 301 482 l 301 401 q 331 374 301 374 q 360 401 360 374 q 285 531 360 478 l 140 629 q 63 831 63 703 q 80 924 63 881 q 127 1003 97 968 q 197 1063 157 1039 q 285 1096 238 1086 q 277 1151 279 1132 q 275 1172 275 1171 q 331 1217 275 1217 q 388 1172 388 1217 q 385 1151 388 1171 q 378 1096 383 1132 q 466 1062 425 1086 q 537 1002 507 1038 q 583 922 567 967 q 600 831 600 878 l 600 751 l 360 751 l 360 831 q 331 858 360 858 q 301 831 301 858 q 379 693 301 739 l 522 607 q 600 401 600 538 z "},"%":{"ha":642,"x_min":38,"x_max":624,"o":"m 486 388 q 471 406 486 406 q 456 388 456 406 l 456 150 q 471 135 456 135 q 486 150 486 135 l 486 388 m 207 1038 q 190 1054 207 1054 q 174 1038 174 1054 l 174 801 q 190 785 174 785 q 207 801 207 785 l 207 1038 m 624 150 q 611 91 624 118 q 578 44 599 64 q 529 12 557 24 q 471 0 501 0 q 411 12 439 0 q 363 44 383 24 q 330 91 342 64 q 318 150 318 118 l 318 388 q 331 447 318 419 q 364 496 343 475 q 413 528 385 517 q 471 540 440 540 q 529 528 501 540 q 578 494 557 515 q 611 446 599 474 q 624 388 624 418 l 624 150 m 550 1190 l 158 0 l 113 0 l 508 1190 l 550 1190 m 342 801 q 330 742 342 769 q 297 694 318 715 q 249 662 276 674 q 190 650 221 650 q 131 662 158 650 q 82 694 103 674 q 49 742 61 715 q 38 801 38 769 l 38 1038 q 50 1097 38 1069 q 83 1146 63 1125 q 132 1178 104 1167 q 190 1190 160 1190 q 249 1178 221 1190 q 297 1146 276 1167 q 330 1097 318 1125 q 342 1038 342 1069 l 342 801 z "},"&":{"ha":775,"x_min":28,"x_max":756,"o":"m 342 340 l 286 446 q 254 336 254 418 q 300 240 254 240 q 333 281 322 240 l 342 340 m 339 901 q 300 950 339 950 q 263 910 263 950 q 300 819 263 863 q 339 901 339 846 m 756 0 l 539 0 l 463 125 q 439 79 456 101 q 400 39 422 57 q 351 10 378 21 q 300 0 325 0 q 159 32 213 0 q 76 117 106 64 q 38 238 47 169 q 28 379 28 306 q 131 699 28 600 q 81 907 81 783 q 140 1113 81 1036 q 300 1190 199 1190 q 385 1172 346 1190 q 454 1119 425 1153 q 500 1041 483 1086 q 517 943 517 996 q 383 665 517 783 l 443 564 l 475 615 l 626 526 l 550 371 l 756 0 z "},"'":{"ha":246,"x_min":44,"x_max":225,"o":"m 225 1086 q 215 1020 225 1053 q 193 953 206 988 q 168 882 181 919 q 150 801 156 844 l 118 801 q 105 873 111 839 q 88 938 99 907 l 60 1010 q 44 1086 44 1050 q 69 1177 44 1142 q 133 1213 93 1213 q 201 1176 176 1213 q 225 1086 225 1139 z "},"(":{"ha":486,"x_min":63,"x_max":422,"o":"m 271 -240 q 63 511 63 111 q 271 1264 63 910 l 421 1264 q 249 917 307 1106 q 192 511 192 728 q 422 -240 192 124 l 271 -240 z "},")":{"ha":483,"x_min":60,"x_max":419,"o":"m 60 -240 q 167 -56 122 -144 q 239 123 211 33 q 279 308 267 213 q 292 511 292 403 q 278 722 292 624 q 235 913 264 821 q 163 1090 207 1004 q 60 1264 119 1176 l 210 1264 q 369 899 318 1083 q 419 511 419 715 q 369 122 419 306 q 210 -240 318 -61 l 60 -240 z "},"*":{"ha":551,"x_min":94,"x_max":519,"o":"m 519 921 l 500 833 l 351 869 l 372 717 l 282 708 l 269 861 l 131 796 l 94 878 l 238 935 l 131 1049 l 197 1108 l 299 990 l 372 1125 l 449 1082 l 367 950 l 519 921 z "},"+":{"ha":529,"x_min":49,"x_max":514,"o":"m 514 475 l 399 475 l 399 353 l 158 353 l 158 475 l 49 475 l 49 715 l 158 715 l 158 836 l 399 836 l 399 715 l 514 715 l 514 475 z "},",":{"ha":264,"x_min":50,"x_max":251,"o":"m 251 122 q 208 -28 251 31 q 89 -97 165 -87 q 117 -36 117 -69 q 106 1 117 -24 q 83 56 96 26 q 60 112 71 85 q 50 156 50 139 q 81 232 50 200 q 154 264 111 264 q 251 122 251 264 z "},"-":{"ha":529,"x_min":49,"x_max":514,"o":"m 514 475 l 49 475 l 49 715 l 514 715 l 514 475 z "},".":{"ha":279,"x_min":25,"x_max":265,"o":"m 265 135 q 234 40 265 81 q 149 0 203 0 q 99 11 122 0 q 60 41 76 22 q 34 84 43 60 q 25 135 25 108 q 34 186 25 161 q 60 229 43 211 q 99 258 76 247 q 149 269 122 269 q 234 230 203 269 q 265 135 265 190 z "},"/":{"ha":508,"x_min":-7,"x_max":493,"o":"m 493 1190 l 101 0 l -7 0 l 389 1190 l 493 1190 z "},":":{"ha":299,"x_min":39,"x_max":279,"o":"m 279 135 q 248 40 279 81 q 164 0 217 0 q 113 11 136 0 q 74 41 90 22 q 48 84 57 60 q 39 135 39 108 q 74 229 39 189 q 164 269 110 269 q 248 230 217 269 q 279 135 279 190 m 279 536 q 271 485 279 510 q 248 442 263 461 q 212 413 233 424 q 164 401 190 401 q 113 413 136 401 q 74 442 90 424 q 48 485 57 461 q 39 536 39 510 q 48 589 39 564 q 74 633 57 614 q 113 663 90 651 q 164 674 136 674 q 248 633 217 674 q 279 536 279 592 z "},";":{"ha":294,"x_min":38,"x_max":276,"o":"m 251 122 q 208 -28 251 31 q 89 -97 165 -87 q 117 -36 117 -69 q 106 1 117 -24 q 83 56 96 26 q 60 112 71 85 q 50 156 50 139 q 81 232 50 200 q 154 264 111 264 q 251 122 251 264 m 276 536 q 268 485 276 510 q 245 442 260 461 q 208 413 231 424 q 160 401 186 401 q 111 413 133 401 q 72 442 89 424 q 47 485 56 461 q 38 536 38 510 q 47 589 38 564 q 72 633 56 614 q 111 663 89 651 q 160 674 133 674 q 245 633 214 674 q 276 536 276 592 z "},"<":{"ha":419,"x_min":11,"x_max":401,"o":"m 401 336 l 261 336 l 11 585 l 261 835 l 401 835 l 153 585 l 401 336 z "},"=":{"ha":458,"x_min":56,"x_max":446,"o":"m 446 369 l 56 369 l 56 533 l 446 533 l 446 369 m 446 657 l 56 657 l 56 824 l 446 824 l 446 657 z "},">":{"ha":485,"x_min":85,"x_max":474,"o":"m 474 585 l 225 336 l 85 336 l 335 585 l 85 835 l 225 835 l 474 585 z "},"?":{"ha":593,"x_min":24,"x_max":563,"o":"m 389 135 q 357 40 389 81 q 271 0 325 0 q 221 12 243 0 q 183 42 199 24 q 158 85 167 61 q 149 135 149 110 q 158 186 149 161 q 185 229 168 211 q 224 258 201 247 q 271 269 246 269 q 357 230 325 269 q 389 135 389 190 m 563 921 q 547 813 560 865 q 506 713 535 761 q 467 661 494 694 q 412 592 440 628 q 360 524 383 556 q 336 475 338 492 l 322 331 l 201 331 q 164 542 164 510 q 243 747 164 635 q 322 921 322 861 q 292 950 322 950 q 264 921 264 950 l 264 843 l 24 843 l 24 921 q 45 1026 24 976 q 103 1112 67 1075 q 189 1169 140 1149 q 292 1190 238 1190 q 395 1169 346 1190 q 482 1111 444 1147 q 541 1026 519 1075 q 563 921 563 976 z "},"@":{"ha":719,"x_min":58,"x_max":672,"o":"m 372 521 q 346 490 346 504 q 360 475 346 475 q 372 490 372 475 l 372 521 m 524 422 q 474 367 524 367 q 432 399 439 367 q 360 365 408 365 q 270 401 307 365 q 233 490 233 438 q 269 579 233 540 q 295 600 278 588 q 329 625 313 613 q 359 648 346 638 q 372 663 372 658 l 372 683 q 360 696 372 696 q 336 656 336 696 l 242 656 l 242 683 q 360 807 242 807 q 407 797 385 807 q 447 771 429 788 q 474 731 464 754 q 483 683 483 708 l 483 475 l 524 475 l 524 422 m 571 732 q 555 811 571 774 q 510 877 539 849 q 444 922 482 906 q 365 938 407 938 q 285 922 322 938 q 219 878 247 906 q 176 813 192 850 q 160 732 160 775 l 160 411 q 176 331 160 368 q 219 265 192 293 q 285 222 247 238 q 365 206 322 206 q 444 222 407 206 q 510 266 482 238 q 555 332 539 294 q 571 411 571 369 l 571 732 m 672 354 q 646 247 672 297 q 576 158 619 196 q 478 99 533 121 q 365 76 422 76 q 253 99 308 76 q 154 159 197 121 q 85 248 111 197 q 58 354 58 299 l 58 786 q 85 890 58 840 q 154 978 111 940 q 253 1040 197 1017 q 365 1063 308 1063 q 478 1040 422 1063 q 576 980 533 1018 q 646 892 619 942 q 672 786 672 842 l 672 354 z "},"A":{"ha":579,"x_min":15,"x_max":569,"o":"m 318 193 l 294 467 l 268 193 l 318 193 m 569 -1 l 331 -1 l 324 132 l 265 132 l 254 -1 l 15 -1 l 186 1190 l 403 1190 l 569 -1 z "},"B":{"ha":647,"x_min":50,"x_max":589,"o":"m 349 418 q 335 455 349 436 q 303 474 322 474 l 290 474 l 290 240 l 303 240 q 349 294 349 240 l 349 418 m 349 894 q 303 950 349 950 l 290 950 l 290 715 l 303 715 q 335 734 322 715 q 349 772 349 753 l 349 894 m 589 274 q 568 173 589 222 q 511 85 547 124 q 428 24 475 47 q 326 0 381 0 l 50 0 l 50 1190 l 326 1190 q 426 1167 379 1190 q 510 1105 474 1143 q 567 1017 546 1067 q 589 917 589 968 l 589 753 q 563 658 589 703 q 493 593 536 614 q 531 568 514 585 q 562 531 549 551 q 582 485 575 510 q 589 436 589 461 l 589 274 z "},"C":{"ha":650,"x_min":51,"x_max":589,"o":"m 589 268 q 568 165 589 214 q 510 80 547 117 q 425 22 474 43 q 321 0 376 0 q 215 21 264 0 q 130 78 167 42 q 72 164 93 115 q 51 268 51 213 l 51 921 q 73 1027 51 978 q 131 1113 94 1076 q 217 1169 168 1149 q 321 1190 265 1190 q 424 1169 375 1190 q 510 1111 474 1147 q 567 1026 546 1075 q 589 921 589 976 l 589 663 l 349 663 l 349 921 q 321 950 349 950 q 292 921 292 950 l 292 268 q 321 240 292 240 q 349 268 349 240 l 349 540 l 589 540 l 589 268 z "},"D":{"ha":650,"x_min":51,"x_max":589,"o":"m 349 921 q 321 950 349 950 l 292 950 l 292 240 l 321 240 q 349 268 349 240 l 349 921 m 589 268 q 568 165 589 214 q 510 80 547 117 q 425 22 474 43 q 321 0 376 0 l 51 0 l 51 1190 l 321 1190 q 424 1169 375 1190 q 510 1111 474 1147 q 567 1026 546 1075 q 589 921 589 976 l 589 268 z "},"E":{"ha":604,"x_min":50,"x_max":547,"o":"m 547 0 l 50 0 l 50 1190 l 547 1190 l 547 950 l 290 950 l 290 715 l 426 715 l 426 475 l 290 475 l 290 240 l 547 240 l 547 0 z "},"F":{"ha":547,"x_min":36,"x_max":532,"o":"m 532 950 l 276 950 l 276 700 l 411 700 l 411 460 l 276 460 l 276 0 l 36 0 l 36 1190 l 532 1190 l 532 950 z "},"G":{"ha":636,"x_min":39,"x_max":615,"o":"m 615 475 l 576 475 l 576 114 q 606 0 576 56 l 447 0 q 406 81 414 10 q 394 47 406 63 q 365 22 383 32 q 324 6 347 11 q 278 0 301 0 q 181 20 225 0 q 105 76 136 40 q 56 161 74 113 q 39 268 39 210 l 39 921 q 60 1027 39 978 q 119 1113 82 1076 q 204 1169 156 1149 q 307 1190 253 1190 q 412 1169 363 1190 q 497 1111 461 1147 q 555 1026 533 1075 q 576 921 576 976 l 576 828 l 336 828 l 336 921 q 307 950 336 950 q 279 921 279 950 l 279 268 q 307 240 279 240 q 336 268 336 240 l 336 715 l 615 715 l 615 475 z "},"H":{"ha":647,"x_min":51,"x_max":589,"o":"m 589 0 l 349 0 l 349 475 l 292 475 l 292 0 l 51 0 l 51 1190 l 292 1190 l 292 715 l 349 715 l 349 1190 l 589 1190 l 589 0 z "},"I":{"ha":350,"x_min":51,"x_max":292,"o":"m 292 0 l 51 0 l 51 1190 l 292 1190 l 292 0 z "},"J":{"ha":661,"x_min":51,"x_max":589,"o":"m 589 268 q 568 165 589 214 q 510 80 547 117 q 425 22 474 43 q 321 0 376 0 q 215 21 264 0 q 130 78 167 42 q 72 164 93 115 q 51 268 51 213 l 51 406 l 292 406 l 292 268 q 321 240 292 240 q 349 268 349 240 l 349 1190 l 589 1190 l 589 268 z "},"K":{"ha":663,"x_min":38,"x_max":665,"o":"m 665 1190 l 361 668 l 653 0 l 388 0 l 278 265 l 278 0 l 38 0 l 38 1190 l 278 1190 l 278 989 l 394 1190 l 665 1190 z "},"L":{"ha":481,"x_min":38,"x_max":456,"o":"m 456 0 l 38 0 l 38 1190 l 278 1190 l 278 240 l 456 240 l 456 0 z "},"M":{"ha":835,"x_min":51,"x_max":778,"o":"m 778 0 l 539 0 l 539 306 l 451 0 l 378 0 l 292 306 l 292 0 l 51 0 l 51 1190 l 293 1190 l 411 582 l 536 1190 l 778 1190 l 778 0 z "},"N":{"ha":647,"x_min":51,"x_max":589,"o":"m 589 0 l 378 0 l 292 276 l 292 0 l 51 0 l 51 1190 l 263 1190 l 349 894 l 349 1190 l 589 1190 l 589 0 z "},"O":{"ha":642,"x_min":51,"x_max":589,"o":"m 349 921 q 321 950 349 950 q 292 921 292 950 l 292 268 q 321 240 292 240 q 349 268 349 240 l 349 921 m 589 268 q 568 165 589 214 q 510 80 547 117 q 425 22 474 43 q 321 0 376 0 q 215 21 264 0 q 130 78 167 42 q 72 164 93 115 q 51 268 51 213 l 51 921 q 73 1027 51 978 q 131 1113 94 1076 q 217 1169 168 1149 q 321 1190 265 1190 q 424 1169 375 1190 q 510 1111 474 1147 q 567 1026 546 1075 q 589 921 589 976 l 589 268 z "},"P":{"ha":615,"x_min":44,"x_max":581,"o":"m 340 894 q 294 950 340 950 l 285 950 l 285 715 l 294 715 q 327 734 314 715 q 340 772 340 753 l 340 894 m 581 753 q 560 653 581 703 q 503 563 539 603 q 419 499 467 524 q 321 475 372 475 l 285 475 l 285 0 l 44 0 l 44 1190 l 321 1190 q 419 1167 372 1190 q 502 1106 467 1144 q 559 1017 538 1067 q 581 917 581 968 l 581 753 z "},"Q":{"ha":636,"x_min":43,"x_max":618,"o":"m 618 -114 q 422 -217 493 -114 l 244 -93 q 324 0 272 -44 l 304 0 q 203 22 250 0 q 120 79 156 43 q 64 165 85 115 q 43 268 43 214 l 43 921 q 65 1027 43 978 q 123 1113 86 1076 q 208 1169 160 1149 q 311 1190 257 1190 q 414 1169 365 1190 q 499 1112 463 1149 q 558 1026 536 1075 q 579 921 579 976 l 579 268 q 518 97 579 171 q 618 110 568 110 l 618 -114 m 339 921 q 311 950 339 950 q 281 921 281 950 l 281 268 q 311 240 281 240 q 339 268 339 240 l 339 921 z "},"R":{"ha":650,"x_min":51,"x_max":589,"o":"m 349 894 q 303 950 349 950 l 292 950 l 292 715 l 303 715 q 335 734 322 715 q 349 772 349 753 l 349 894 m 589 0 l 349 0 l 349 418 q 292 474 349 474 l 292 0 l 51 0 l 51 1190 l 328 1190 q 427 1167 379 1190 q 510 1106 475 1144 q 567 1017 546 1067 q 589 917 589 968 l 589 753 q 528 593 589 667 q 589 436 589 519 l 589 0 z "},"S":{"ha":650,"x_min":51,"x_max":589,"o":"m 589 268 q 568 165 589 214 q 510 80 547 117 q 425 22 474 43 q 321 0 376 0 q 215 21 264 0 q 130 78 167 42 q 72 164 93 115 q 51 268 51 213 l 51 400 l 292 400 l 292 268 q 321 240 292 240 q 349 268 349 240 q 271 481 349 400 l 129 617 q 51 921 51 724 q 73 1027 51 978 q 131 1113 94 1076 q 217 1169 168 1149 q 321 1190 265 1190 q 424 1169 375 1190 q 510 1111 474 1147 q 567 1026 546 1075 q 589 921 589 976 l 589 789 l 349 789 l 349 921 q 321 950 349 950 q 292 921 292 950 q 311 808 292 858 q 362 715 331 758 q 433 633 393 672 q 511 556 472 594 q 589 268 589 446 z "},"T":{"ha":490,"x_min":14,"x_max":471,"o":"m 471 950 l 363 950 l 363 0 l 122 0 l 122 950 l 14 950 l 14 1190 l 471 1190 l 471 950 z "},"U":{"ha":642,"x_min":51,"x_max":589,"o":"m 589 268 q 568 165 589 214 q 510 80 547 117 q 425 22 474 43 q 321 0 376 0 q 215 21 264 0 q 130 78 167 42 q 72 164 93 115 q 51 268 51 213 l 51 1190 l 292 1190 l 292 268 q 321 240 292 240 q 349 268 349 240 l 349 1190 l 589 1190 l 589 268 z "},"V":{"ha":572,"x_min":11,"x_max":567,"o":"m 567 1190 l 394 0 l 179 0 l 11 1190 l 250 1190 l 289 918 l 328 1190 l 567 1190 z "},"W":{"ha":838,"x_min":14,"x_max":829,"o":"m 829 1192 l 671 0 l 469 0 l 419 342 l 369 0 l 168 0 l 14 1192 l 253 1192 l 304 871 l 349 1192 l 494 1192 l 539 871 l 590 1192 l 829 1192 z "},"X":{"ha":689,"x_min":26,"x_max":656,"o":"m 656 1190 l 471 596 l 656 0 l 397 0 l 340 193 l 286 0 l 26 0 l 210 596 l 26 1190 l 289 1190 l 340 1004 l 394 1190 l 656 1190 z "},"Y":{"ha":635,"x_min":3,"x_max":631,"o":"m 438 556 l 438 0 l 197 0 l 197 551 l 3 1190 l 250 1190 l 317 975 l 385 1190 l 631 1190 l 438 556 z "},"Z":{"ha":600,"x_min":33,"x_max":569,"o":"m 569 0 l 33 0 l 33 161 l 286 950 l 33 950 l 33 1190 l 569 1190 l 569 1028 l 315 240 l 569 240 l 569 0 z "},"\\":{"ha":590,"x_min":71,"x_max":569,"o":"m 569 0 l 461 0 l 71 1190 l 174 1190 l 569 0 z "},"^":{"ha":575,"x_min":33,"x_max":531,"o":"m 531 732 l 281 981 l 33 732 l 33 946 l 281 1196 l 531 946 l 531 732 z "},"_":{"ha":710,"x_min":29,"x_max":710,"o":"m 710 -253 l 29 -253 l 29 -79 l 710 -79 l 710 -253 z "},"`":{"ha":479,"x_min":183,"x_max":365,"o":"m 335 1139 l 365 1040 l 285 1040 l 183 1139 l 335 1139 z "},"a":{"ha":665,"x_min":32,"x_max":657,"o":"m 328 436 q 271 351 271 399 l 271 268 q 300 240 271 240 q 328 268 328 240 l 328 436 m 657 121 q 628 37 657 71 q 550 3 599 3 q 456 74 472 3 q 300 0 406 0 q 196 21 244 0 q 110 78 147 42 q 53 164 74 115 q 32 268 32 213 q 108 450 32 375 q 160 488 124 465 q 233 531 196 510 q 299 570 271 553 q 328 594 328 588 l 328 686 q 299 719 328 719 q 269 665 269 719 l 269 644 q 271 634 271 638 q 271 629 271 631 l 47 629 l 47 686 q 113 881 47 808 q 300 954 178 954 q 403 933 354 954 q 489 875 453 911 q 547 790 525 839 q 568 686 568 740 l 568 240 l 657 240 l 657 121 z "},"b":{"ha":607,"x_min":33,"x_max":571,"o":"m 331 686 q 303 714 331 714 q 274 686 274 714 l 274 268 q 303 240 274 240 q 331 268 331 240 l 331 686 m 571 268 q 549 165 571 214 q 492 79 528 115 q 407 22 456 43 q 303 0 358 0 q 258 8 285 0 q 206 24 232 15 q 157 41 179 33 q 125 49 135 49 q 33 0 82 49 l 33 1213 l 274 1213 l 274 953 q 288 954 281 954 q 303 954 294 954 q 406 933 357 954 q 491 875 454 911 q 549 790 528 839 q 571 686 571 742 l 571 268 z "},"c":{"ha":607,"x_min":33,"x_max":571,"o":"m 571 268 q 549 165 571 214 q 492 79 528 115 q 407 22 456 43 q 303 0 358 0 q 198 21 247 0 q 113 78 149 42 q 55 164 76 115 q 33 268 33 213 l 33 686 q 55 790 33 742 q 113 875 76 839 q 199 933 150 911 q 303 954 249 954 q 406 933 357 954 q 491 875 454 911 q 549 790 528 839 q 571 686 571 742 l 571 546 l 331 546 l 331 686 q 303 714 331 714 q 274 686 274 714 l 274 268 q 303 240 274 240 q 331 268 331 240 l 331 435 l 571 435 l 571 268 z "},"d":{"ha":647,"x_min":51,"x_max":589,"o":"m 349 686 q 321 714 349 714 q 292 686 292 714 l 292 268 q 321 240 292 240 q 349 268 349 240 l 349 686 m 589 0 q 479 28 526 28 q 440 23 465 28 q 386 13 414 18 q 333 3 358 8 q 293 -1 307 -1 q 198 22 242 -1 q 122 83 154 44 q 70 169 89 121 q 51 268 51 218 l 51 686 q 73 792 51 743 q 132 876 94 840 q 219 933 169 913 q 326 954 269 954 q 338 954 332 954 q 349 953 343 954 l 349 1213 l 589 1213 l 589 0 z "},"e":{"ha":607,"x_min":33,"x_max":571,"o":"m 331 686 q 303 714 331 714 q 274 686 274 714 l 274 564 l 331 564 l 331 686 m 571 268 q 549 165 571 214 q 492 79 528 115 q 407 22 456 43 q 303 0 358 0 q 198 21 247 0 q 113 78 149 42 q 55 164 76 115 q 33 268 33 213 l 33 686 q 55 790 33 742 q 113 875 76 839 q 199 933 150 911 q 303 954 249 954 q 406 933 357 954 q 491 875 454 911 q 549 790 528 839 q 571 686 571 742 l 571 486 l 274 486 l 274 268 q 303 240 274 240 q 331 268 331 240 l 331 375 l 571 375 l 571 268 z "},"f":{"ha":492,"x_min":36,"x_max":492,"o":"m 492 944 l 338 944 l 338 864 l 422 864 l 422 624 l 338 624 l 338 0 l 97 0 l 97 624 l 36 624 l 36 864 l 97 864 l 97 992 q 149 1151 97 1092 q 299 1211 201 1211 q 441 1149 390 1211 q 492 992 492 1088 l 492 944 z "},"g":{"ha":650,"x_min":39,"x_max":607,"o":"m 367 -29 q 351 -10 367 -19 q 324 -1 336 -1 q 295 -10 311 -1 q 279 -29 279 -19 l 279 -46 q 295 -65 279 -57 q 324 -74 311 -74 q 351 -65 336 -74 q 367 -46 367 -57 l 367 -29 m 351 656 q 324 685 351 685 q 294 656 294 685 l 294 492 q 324 463 294 463 q 351 492 351 463 l 351 656 m 607 -46 q 324 -225 607 -225 q 39 -46 39 -225 l 39 -29 q 196 132 39 96 q 131 192 131 156 q 207 250 131 232 q 96 349 136 285 q 56 492 56 413 l 56 656 q 76 763 56 710 q 134 859 97 817 q 219 928 171 901 q 324 954 268 954 l 347 954 q 592 1050 551 954 l 592 492 q 578 406 592 447 q 538 331 564 365 q 477 271 513 296 q 400 233 442 246 q 369 228 390 231 q 325 222 347 226 q 285 208 303 217 q 268 185 268 200 q 324 149 268 149 q 607 -29 607 149 l 607 -46 z "},"h":{"ha":632,"x_min":53,"x_max":592,"o":"m 592 0 l 351 0 l 351 686 q 322 714 351 714 q 293 686 293 714 l 293 0 l 53 0 l 53 1213 l 293 1213 l 293 944 q 326 954 311 954 q 428 933 381 954 q 513 875 476 911 q 571 790 550 839 q 592 686 592 740 l 592 0 z "},"i":{"ha":361,"x_min":51,"x_max":292,"o":"m 292 0 l 51 0 l 51 954 l 292 954 l 292 0 m 290 1094 q 258 1012 290 1043 q 174 981 225 981 q 88 1011 122 981 q 53 1094 53 1042 q 88 1175 53 1144 q 174 1206 122 1206 q 258 1175 225 1206 q 290 1094 290 1144 z "},"j":{"ha":463,"x_min":0,"x_max":394,"o":"m 394 -10 q 341 -169 394 -110 q 193 -228 288 -228 q 51 -167 101 -228 q 0 -10 0 -106 l 0 38 l 154 38 l 154 954 l 394 954 l 394 -10 m 394 1094 q 361 1012 394 1043 q 278 981 328 981 q 192 1011 226 981 q 157 1094 157 1042 q 192 1175 157 1144 q 278 1206 226 1206 q 361 1175 328 1206 q 394 1094 394 1144 z "},"k":{"ha":642,"x_min":46,"x_max":635,"o":"m 635 954 l 382 560 l 632 0 l 369 0 l 286 189 l 286 0 l 46 0 l 46 1213 l 286 1213 l 286 844 l 346 954 l 635 954 z "},"l":{"ha":350,"x_min":51,"x_max":292,"o":"m 292 0 l 51 0 l 51 1213 l 292 1213 l 292 0 z "},"m":{"ha":928,"x_min":53,"x_max":889,"o":"m 889 0 l 649 0 l 649 686 q 619 714 649 714 q 592 686 592 714 l 592 0 l 351 0 l 351 686 q 322 714 351 714 q 293 686 293 714 l 293 0 l 53 0 l 53 954 q 174 929 132 929 q 189 933 176 929 q 222 942 201 938 q 267 950 242 946 q 322 954 293 954 q 471 904 408 954 q 619 954 531 954 q 724 933 675 954 q 810 875 774 911 q 867 790 846 839 q 889 686 889 740 l 889 0 z "},"n":{"ha":631,"x_min":53,"x_max":592,"o":"m 592 0 l 351 0 l 351 686 q 322 714 351 714 q 293 686 293 714 l 293 0 l 53 0 l 53 954 q 168 926 129 926 q 194 930 174 926 q 250 944 214 933 q 283 951 265 949 q 322 954 301 954 q 425 933 376 954 q 511 875 474 911 q 570 790 549 839 q 592 686 592 742 l 592 0 z "},"o":{"ha":607,"x_min":33,"x_max":571,"o":"m 331 686 q 303 714 331 714 q 274 686 274 714 l 274 268 q 303 240 274 240 q 331 268 331 240 l 331 686 m 571 268 q 549 165 571 214 q 492 79 528 115 q 407 22 456 43 q 303 0 358 0 q 198 21 247 0 q 113 78 149 42 q 55 164 76 115 q 33 268 33 213 l 33 686 q 55 790 33 742 q 113 875 76 839 q 199 933 150 911 q 303 954 249 954 q 406 933 357 954 q 491 875 454 911 q 549 790 528 839 q 571 686 571 742 l 571 268 z "},"p":{"ha":607,"x_min":33,"x_max":571,"o":"m 331 686 q 303 714 331 714 q 274 686 274 714 l 274 268 q 303 239 274 239 q 331 268 331 239 l 331 686 m 571 268 q 549 161 571 210 q 489 76 526 113 q 401 20 451 40 q 294 0 351 0 l 274 0 l 274 -261 l 33 -261 l 33 954 q 135 926 96 926 q 167 931 146 926 q 214 940 189 935 q 263 950 239 946 q 303 954 288 954 q 406 933 357 954 q 491 875 454 911 q 549 790 528 839 q 571 686 571 742 l 571 268 z "},"q":{"ha":647,"x_min":51,"x_max":589,"o":"m 349 686 q 321 714 349 714 q 292 686 292 714 l 292 268 q 321 240 292 240 q 349 268 349 240 l 349 686 m 589 -258 l 349 -258 l 349 0 l 321 0 q 215 21 264 0 q 130 78 167 42 q 72 164 93 115 q 51 268 51 213 l 51 686 q 73 790 51 742 q 131 876 94 839 q 217 933 168 913 q 321 954 265 954 q 361 949 336 954 q 413 940 386 944 q 462 930 439 935 q 497 925 485 925 q 589 954 540 925 l 589 -258 z "},"r":{"ha":446,"x_min":47,"x_max":451,"o":"m 360 693 q 321 715 343 715 q 286 686 286 715 l 286 0 l 47 0 l 47 954 q 149 918 115 918 q 201 924 175 918 q 251 938 228 931 q 294 952 275 946 q 324 958 313 958 q 451 901 406 958 l 360 693 z "},"s":{"ha":608,"x_min":36,"x_max":572,"o":"m 572 268 q 551 165 572 214 q 494 80 531 117 q 408 22 457 43 q 304 0 360 0 q 200 21 249 0 q 115 78 151 42 q 57 164 78 115 q 36 268 36 213 l 36 347 l 276 347 l 276 268 q 304 240 276 240 q 333 268 333 240 q 312 338 333 306 q 258 397 290 369 q 187 448 226 424 q 113 496 147 472 q 36 697 36 568 q 58 801 36 753 q 116 887 79 850 q 201 944 153 924 q 304 965 250 965 q 408 944 358 965 q 493 886 457 922 q 551 801 529 850 q 572 697 572 751 l 572 617 l 333 617 l 333 697 q 304 725 333 725 q 276 697 276 725 q 353 558 276 608 l 496 472 q 572 268 572 404 z "},"t":{"ha":475,"x_min":0,"x_max":456,"o":"m 456 221 q 442 135 456 175 q 405 65 429 94 q 345 18 381 35 q 264 1 310 1 q 115 61 168 1 q 61 221 61 121 l 61 714 l 0 714 l 0 954 q 102 974 53 954 q 192 1029 151 994 q 260 1112 232 1064 q 301 1215 289 1160 l 301 954 l 388 954 l 388 714 l 301 714 l 301 268 l 456 268 l 456 221 z "},"u":{"ha":650,"x_min":51,"x_max":589,"o":"m 589 0 q 479 33 522 33 q 449 28 469 33 q 406 16 429 22 q 360 5 383 10 q 321 0 336 0 q 215 21 264 0 q 130 78 167 42 q 72 164 93 115 q 51 268 51 213 l 51 954 l 292 954 l 292 268 q 321 240 292 240 q 349 268 349 240 l 349 954 l 589 954 l 589 0 z "},"v":{"ha":589,"x_min":19,"x_max":579,"o":"m 579 954 l 403 0 l 192 0 l 19 954 l 258 954 l 300 626 l 340 954 l 579 954 z "},"w":{"ha":858,"x_min":21,"x_max":838,"o":"m 838 954 l 678 0 l 481 0 l 428 331 l 375 0 l 178 0 l 21 954 l 261 954 l 297 657 l 342 954 l 517 954 l 563 657 l 600 954 l 838 954 z "},"x":{"ha":692,"x_min":22,"x_max":664,"o":"m 664 954 l 475 479 l 664 0 l 401 0 l 343 161 l 285 0 l 22 0 l 210 479 l 22 954 l 288 954 l 343 797 l 399 954 l 664 954 z "},"y":{"ha":593,"x_min":19,"x_max":579,"o":"m 579 954 l 351 -261 l 113 -261 l 179 57 l 19 954 l 258 954 l 300 751 l 340 954 l 579 954 z "},"z":{"ha":619,"x_min":44,"x_max":581,"o":"m 581 0 l 44 0 l 44 167 l 293 714 l 44 714 l 44 954 l 581 954 l 581 788 l 331 240 l 581 240 l 581 0 z "},"¡":{"ha":349,"x_min":61,"x_max":301,"o":"m 301 849 q 270 754 301 794 q 185 714 239 714 q 135 725 158 714 q 96 755 113 736 q 70 798 79 774 q 61 849 61 822 q 70 900 61 875 q 96 944 79 925 q 135 974 113 963 q 185 985 158 985 q 270 944 239 985 q 301 849 301 904 m 301 -101 q 269 -194 301 -157 q 182 -231 236 -231 q 94 -194 128 -231 q 61 -101 61 -157 q 63 -18 61 -54 q 68 44 65 18 q 83 168 76 115 q 96 265 90 221 q 106 348 101 310 q 116 428 111 386 q 126 517 121 469 q 136 628 131 565 l 228 628 q 245 435 238 522 q 264 278 253 349 l 297 44 q 301 -101 301 -8 z "},"¨":{"ha":458,"x_min":57,"x_max":421,"o":"m 207 1076 q 186 1037 207 1053 q 132 1021 165 1021 q 78 1037 100 1021 q 57 1076 57 1053 q 78 1117 57 1100 q 132 1135 100 1135 q 186 1117 165 1135 q 207 1076 207 1100 m 421 1076 q 399 1037 421 1053 q 346 1021 376 1021 q 290 1037 313 1021 q 268 1076 268 1053 q 290 1117 268 1100 q 346 1135 313 1135 q 399 1117 376 1135 q 421 1076 421 1100 z "},"©":{"ha":1335,"x_min":64,"x_max":1285,"o":"m 64 589 q 112 826 64 715 q 243 1020 160 938 q 438 1151 326 1103 q 675 1199 549 1199 q 913 1151 801 1199 q 1106 1020 1024 1103 q 1237 826 1189 938 q 1285 589 1285 715 q 1237 351 1285 463 q 1106 157 1189 240 q 913 26 1024 74 q 675 -22 801 -22 q 438 26 549 -22 q 243 157 326 74 q 112 351 160 240 q 64 589 64 463 m 136 585 q 178 375 136 474 q 294 203 221 276 q 466 88 368 131 q 676 46 564 46 q 886 88 788 46 q 1059 203 985 131 q 1176 375 1133 276 q 1219 585 1219 474 q 1176 797 1219 697 q 1059 971 1133 897 q 886 1088 985 1044 q 676 1131 788 1131 q 466 1088 564 1131 q 294 971 368 1044 q 178 797 221 897 q 136 585 136 697 m 840 399 q 827 336 840 365 q 792 285 814 307 q 742 251 771 264 q 679 239 713 239 q 618 251 647 239 q 567 285 589 264 q 533 336 546 307 q 521 399 521 365 l 521 786 q 533 849 521 819 q 567 899 546 878 q 618 933 589 921 q 679 946 647 946 q 742 933 713 946 q 792 899 771 921 q 827 849 814 878 q 840 786 840 819 l 840 632 l 697 632 l 697 786 q 679 804 697 804 q 663 786 663 804 l 663 399 q 679 382 663 382 q 697 399 697 382 l 697 560 l 840 560 l 840 399 z "},"«":{"ha":588,"x_min":64,"x_max":542,"o":"m 149 532 l 310 457 l 310 363 l 64 483 l 64 576 l 310 703 l 310 606 l 149 532 m 382 532 l 542 457 l 542 363 l 297 483 l 297 576 l 542 703 l 542 606 l 382 532 z "},"®":{"ha":847,"x_min":74,"x_max":783,"o":"m 424 1115 q 306 1092 358 1115 q 216 1031 253 1068 q 160 945 179 993 q 140 847 140 897 q 160 749 140 797 q 216 663 179 700 q 306 601 253 625 q 424 578 358 578 q 540 599 485 578 q 636 656 594 619 q 702 741 678 692 q 726 847 726 790 q 704 945 726 897 q 642 1031 682 993 q 546 1092 601 1068 q 424 1115 490 1115 m 425 517 q 283 544 347 517 q 172 617 219 571 q 99 722 125 663 q 74 847 74 782 q 99 976 74 915 q 172 1082 125 1036 q 283 1154 219 1128 q 425 1181 347 1181 q 568 1155 503 1181 q 681 1084 633 1129 q 756 978 729 1039 q 783 847 783 917 q 756 722 783 782 q 680 617 728 663 q 566 544 632 571 q 425 517 500 517 m 386 950 l 386 868 l 446 868 q 483 907 483 868 q 446 950 483 950 l 386 950 m 424 794 l 386 794 l 386 663 l 315 663 l 315 1022 l 444 1022 q 525 992 494 1022 q 556 907 556 963 q 542 848 556 871 q 496 806 528 825 l 560 663 l 485 663 l 424 794 z "},"´":{"ha":479,"x_min":265,"x_max":447,"o":"m 447 1139 l 347 1040 l 265 1040 l 297 1139 l 447 1139 z "},"¸":{"ha":401,"x_min":128,"x_max":325,"o":"m 325 -136 q 207 -242 325 -242 q 128 -233 178 -242 l 128 -128 q 207 -92 207 -128 q 202 -65 207 -83 q 197 -36 197 -47 q 239 38 197 1 l 304 38 q 269 -24 269 -6 q 278 -36 269 -28 q 297 -58 286 -44 q 316 -91 307 -72 q 325 -136 325 -110 z "},"»":{"ha":606,"x_min":82,"x_max":558,"o":"m 474 535 l 314 608 l 314 703 l 558 582 l 558 490 l 314 363 l 314 460 l 474 535 m 242 535 l 82 608 l 82 703 l 326 582 l 326 490 l 82 363 l 82 460 l 242 535 z "},"¿":{"ha":593,"x_min":28,"x_max":565,"o":"m 201 817 q 233 912 201 871 q 317 953 264 953 q 366 942 343 953 q 406 912 389 931 q 432 868 422 893 q 442 817 442 843 q 432 765 442 789 q 406 722 422 740 q 366 692 389 703 q 317 681 343 681 q 235 718 268 681 q 201 817 201 756 m 28 29 q 85 239 28 142 q 121 289 94 256 q 176 358 147 322 q 228 427 206 394 q 253 475 251 460 l 268 619 l 389 619 q 425 410 425 439 q 346 203 425 317 q 268 29 268 88 q 297 1 268 1 q 325 29 325 1 l 325 108 l 565 108 l 565 29 q 544 -74 565 -25 q 486 -160 522 -124 q 401 -217 450 -196 q 297 -239 351 -239 q 193 -218 242 -239 q 108 -160 144 -197 q 49 -75 71 -124 q 28 29 28 -26 z "},"À":{"ha":579,"x_min":15,"x_max":569,"o":"m 15 0 m 318 193 l 294 467 l 268 193 l 318 193 m 569 -1 l 331 -1 l 324 132 l 265 132 l 254 -1 l 15 -1 l 186 1190 l 403 1190 l 569 -1 m 349 1375 l 379 1276 l 299 1276 l 197 1375 l 349 1375 z "},"Á":{"ha":579,"x_min":15,"x_max":569,"o":"m 15 0 m 318 193 l 294 467 l 268 193 l 318 193 m 569 -1 l 331 -1 l 324 132 l 265 132 l 254 -1 l 15 -1 l 186 1190 l 403 1190 l 569 -1 m 389 1375 l 289 1276 l 207 1276 l 239 1375 l 389 1375 z "},"Â":{"ha":579,"x_min":15,"x_max":569,"o":"m 15 0 m 318 193 l 294 467 l 268 193 l 318 193 m 569 -1 l 331 -1 l 324 132 l 265 132 l 254 -1 l 15 -1 l 186 1190 l 403 1190 l 569 -1 m 463 1261 l 367 1261 l 289 1331 l 217 1261 l 117 1261 l 222 1375 l 356 1375 l 463 1261 z "},"Ã":{"ha":579,"x_min":15,"x_max":569,"o":"m 15 0 m 318 193 l 294 467 l 268 193 l 318 193 m 569 -1 l 331 -1 l 324 132 l 265 132 l 254 -1 l 15 -1 l 186 1190 l 403 1190 l 569 -1 m 460 1375 q 372 1261 422 1261 q 345 1271 363 1261 q 310 1292 328 1281 q 276 1313 292 1303 q 256 1322 261 1322 q 217 1264 231 1322 l 138 1264 q 214 1378 168 1378 q 241 1368 224 1378 q 277 1346 258 1358 q 312 1324 296 1333 q 335 1314 328 1314 q 386 1375 367 1314 l 460 1375 z "},"Ä":{"ha":579,"x_min":15,"x_max":569,"o":"m 15 0 m 318 193 l 294 467 l 268 193 l 318 193 m 569 -1 l 331 -1 l 324 132 l 265 132 l 254 -1 l 15 -1 l 186 1190 l 403 1190 l 569 -1 m 257 1313 q 236 1273 257 1289 q 182 1257 215 1257 q 128 1273 150 1257 q 107 1313 107 1289 q 128 1353 107 1336 q 182 1371 150 1371 q 236 1353 215 1371 q 257 1313 257 1336 m 471 1313 q 449 1273 471 1289 q 396 1257 426 1257 q 340 1273 363 1257 q 318 1313 318 1289 q 340 1353 318 1336 q 396 1371 363 1371 q 449 1353 426 1371 q 471 1313 471 1336 z "},"Å":{"ha":579,"x_min":15,"x_max":569,"o":"m 15 0 m 318 193 l 294 467 l 268 193 l 318 193 m 569 -1 l 331 -1 l 324 132 l 265 132 l 254 -1 l 15 -1 l 186 1190 l 403 1190 l 569 -1 m 242 1308 q 258 1269 242 1285 q 299 1253 275 1253 q 340 1269 324 1253 q 357 1308 357 1285 q 340 1347 357 1332 q 299 1363 324 1363 q 258 1347 275 1363 q 242 1308 242 1332 m 406 1308 q 373 1238 406 1265 q 297 1211 340 1211 q 223 1238 254 1211 q 192 1308 192 1265 q 223 1376 192 1349 q 297 1404 254 1404 q 373 1376 340 1404 q 406 1308 406 1349 z "},"Æ":{"ha":750,"x_min":47,"x_max":704,"o":"m 342 197 l 342 375 l 311 197 l 342 197 m 704 -1 l 342 -1 l 342 132 l 300 132 l 285 -1 l 47 -1 l 218 1190 l 704 1190 l 704 950 l 567 950 l 567 715 q 590 710 574 710 q 628 715 607 710 l 628 475 l 567 475 l 567 240 l 704 240 l 704 -1 z "},"Ç":{"ha":650,"x_min":51,"x_max":589,"o":"m 51 0 m 589 268 q 568 165 589 214 q 510 80 547 117 q 425 22 474 43 q 321 0 376 0 q 215 21 264 0 q 130 78 167 42 q 72 164 93 115 q 51 268 51 213 l 51 921 q 73 1027 51 978 q 131 1113 94 1076 q 217 1169 168 1149 q 321 1190 265 1190 q 424 1169 375 1190 q 510 1111 474 1147 q 567 1026 546 1075 q 589 921 589 976 l 589 663 l 349 663 l 349 921 q 321 950 349 950 q 292 921 292 950 l 292 268 q 321 240 292 240 q 349 268 349 240 l 349 540 l 589 540 l 589 268 m 424 -136 q 306 -242 424 -242 q 226 -233 276 -242 l 226 -128 q 306 -92 306 -128 q 301 -65 306 -83 q 296 -36 296 -47 q 338 38 296 1 l 403 38 q 368 -24 368 -6 q 376 -36 368 -28 q 395 -58 385 -44 q 415 -91 406 -72 q 424 -136 424 -110 z "},"È":{"ha":604,"x_min":50,"x_max":547,"o":"m 50 0 m 547 0 l 50 0 l 50 1190 l 547 1190 l 547 950 l 290 950 l 290 715 l 426 715 l 426 475 l 290 475 l 290 240 l 547 240 l 547 0 m 361 1375 l 392 1276 l 311 1276 l 210 1375 l 361 1375 z "},"É":{"ha":604,"x_min":50,"x_max":547,"o":"m 50 0 m 547 0 l 50 0 l 50 1190 l 547 1190 l 547 950 l 290 950 l 290 715 l 426 715 l 426 475 l 290 475 l 290 240 l 547 240 l 547 0 m 401 1375 l 301 1276 l 219 1276 l 251 1375 l 401 1375 z "},"Ê":{"ha":604,"x_min":50,"x_max":547,"o":"m 50 0 m 547 0 l 50 0 l 50 1190 l 547 1190 l 547 950 l 290 950 l 290 715 l 426 715 l 426 475 l 290 475 l 290 240 l 547 240 l 547 0 m 475 1261 l 379 1261 l 301 1331 l 229 1261 l 129 1261 l 235 1375 l 368 1375 l 475 1261 z "},"Ë":{"ha":604,"x_min":50,"x_max":547,"o":"m 50 0 m 547 0 l 50 0 l 50 1190 l 547 1190 l 547 950 l 290 950 l 290 715 l 426 715 l 426 475 l 290 475 l 290 240 l 547 240 l 547 0 m 269 1313 q 249 1273 269 1289 q 194 1257 228 1257 q 141 1273 163 1257 q 119 1313 119 1289 q 141 1353 119 1336 q 194 1371 163 1371 q 249 1353 228 1371 q 269 1313 269 1336 m 483 1313 q 461 1273 483 1289 q 408 1257 439 1257 q 353 1273 375 1257 q 331 1313 331 1289 q 353 1353 331 1336 q 408 1371 375 1371 q 461 1353 439 1371 q 483 1313 483 1336 z "},"Ì":{"ha":350,"x_min":51,"x_max":292,"o":"m 51 0 m 292 0 l 51 0 l 51 1190 l 292 1190 l 292 0 m 243 1375 l 274 1276 l 193 1276 l 92 1375 l 243 1375 z "},"Í":{"ha":350,"x_min":51,"x_max":292,"o":"m 51 0 m 292 0 l 51 0 l 51 1190 l 292 1190 l 292 0 m 275 1375 l 175 1276 l 93 1276 l 125 1375 l 275 1375 z "},"Î":{"ha":350,"x_min":10,"x_max":356,"o":"m 10 0 m 292 0 l 51 0 l 51 1190 l 292 1190 l 292 0 m 356 1261 l 260 1261 l 182 1331 l 110 1261 l 10 1261 l 115 1375 l 249 1375 l 356 1261 z "},"Ï":{"ha":350,"x_min":1,"x_max":365,"o":"m 1 0 m 292 0 l 51 0 l 51 1190 l 292 1190 l 292 0 m 151 1313 q 131 1273 151 1289 q 76 1257 110 1257 q 23 1273 44 1257 q 1 1313 1 1289 q 23 1353 1 1336 q 76 1371 44 1371 q 131 1353 110 1371 q 151 1313 151 1336 m 365 1313 q 343 1273 365 1289 q 290 1257 321 1257 q 235 1273 257 1257 q 213 1313 213 1289 q 235 1353 213 1336 q 290 1371 257 1371 q 343 1353 321 1371 q 365 1313 365 1336 z "},"Ð":{"ha":650,"x_min":22,"x_max":589,"o":"m 589 268 q 568 165 589 214 q 510 80 547 117 q 425 22 474 43 q 321 0 376 0 l 51 0 l 51 463 l 22 463 l 22 683 l 51 683 l 51 1190 l 321 1190 q 424 1169 375 1190 q 510 1111 474 1147 q 567 1026 546 1075 q 589 921 589 976 l 589 268 m 329 463 l 292 463 l 292 240 l 321 240 q 349 268 349 240 l 349 921 q 321 950 349 950 l 292 950 l 292 683 l 329 683 l 329 463 z "},"Ñ":{"ha":647,"x_min":51,"x_max":589,"o":"m 51 0 m 589 0 l 378 0 l 292 276 l 292 0 l 51 0 l 51 1190 l 263 1190 l 349 894 l 349 1190 l 589 1190 l 589 0 m 485 1375 q 397 1261 447 1261 q 370 1271 388 1261 q 335 1292 353 1281 q 301 1313 317 1303 q 281 1322 286 1322 q 242 1264 256 1322 l 163 1264 q 239 1378 193 1378 q 266 1368 249 1378 q 302 1346 283 1358 q 337 1324 321 1333 q 360 1314 353 1314 q 411 1375 392 1314 l 485 1375 z "},"Ò":{"ha":642,"x_min":51,"x_max":589,"o":"m 51 0 m 349 921 q 321 950 349 950 q 292 921 292 950 l 292 268 q 321 240 292 240 q 349 268 349 240 l 349 921 m 589 268 q 568 165 589 214 q 510 80 547 117 q 425 22 474 43 q 321 0 376 0 q 215 21 264 0 q 130 78 167 42 q 72 164 93 115 q 51 268 51 213 l 51 921 q 73 1027 51 978 q 131 1113 94 1076 q 217 1169 168 1149 q 321 1190 265 1190 q 424 1169 375 1190 q 510 1111 474 1147 q 567 1026 546 1075 q 589 921 589 976 l 589 268 m 381 1375 l 411 1276 l 331 1276 l 229 1375 l 381 1375 z "},"Ó":{"ha":642,"x_min":51,"x_max":589,"o":"m 51 0 m 349 921 q 321 950 349 950 q 292 921 292 950 l 292 268 q 321 240 292 240 q 349 268 349 240 l 349 921 m 589 268 q 568 165 589 214 q 510 80 547 117 q 425 22 474 43 q 321 0 376 0 q 215 21 264 0 q 130 78 167 42 q 72 164 93 115 q 51 268 51 213 l 51 921 q 73 1027 51 978 q 131 1113 94 1076 q 217 1169 168 1149 q 321 1190 265 1190 q 424 1169 375 1190 q 510 1111 474 1147 q 567 1026 546 1075 q 589 921 589 976 l 589 268 m 421 1375 l 321 1276 l 239 1276 l 271 1375 l 421 1375 z "},"Ô":{"ha":642,"x_min":51,"x_max":589,"o":"m 51 0 m 349 921 q 321 950 349 950 q 292 921 292 950 l 292 268 q 321 240 292 240 q 349 268 349 240 l 349 921 m 589 268 q 568 165 589 214 q 510 80 547 117 q 425 22 474 43 q 321 0 376 0 q 215 21 264 0 q 130 78 167 42 q 72 164 93 115 q 51 268 51 213 l 51 921 q 73 1027 51 978 q 131 1113 94 1076 q 217 1169 168 1149 q 321 1190 265 1190 q 424 1169 375 1190 q 510 1111 474 1147 q 567 1026 546 1075 q 589 921 589 976 l 589 268 m 494 1261 l 399 1261 l 321 1331 l 249 1261 l 149 1261 l 254 1375 l 388 1375 l 494 1261 z "},"Õ":{"ha":642,"x_min":51,"x_max":589,"o":"m 51 0 m 349 921 q 321 950 349 950 q 292 921 292 950 l 292 268 q 321 240 292 240 q 349 268 349 240 l 349 921 m 589 268 q 568 165 589 214 q 510 80 547 117 q 425 22 474 43 q 321 0 376 0 q 215 21 264 0 q 130 78 167 42 q 72 164 93 115 q 51 268 51 213 l 51 921 q 73 1027 51 978 q 131 1113 94 1076 q 217 1169 168 1149 q 321 1190 265 1190 q 424 1169 375 1190 q 510 1111 474 1147 q 567 1026 546 1075 q 589 921 589 976 l 589 268 m 482 1375 q 394 1261 444 1261 q 367 1271 385 1261 q 332 1292 350 1281 q 299 1313 314 1303 q 278 1322 283 1322 q 239 1264 253 1322 l 160 1264 q 236 1378 190 1378 q 263 1368 246 1378 q 299 1346 281 1358 q 334 1324 318 1333 q 357 1314 350 1314 q 408 1375 389 1314 l 482 1375 z "},"Ö":{"ha":642,"x_min":51,"x_max":589,"o":"m 51 0 m 349 921 q 321 950 349 950 q 292 921 292 950 l 292 268 q 321 240 292 240 q 349 268 349 240 l 349 921 m 589 268 q 568 165 589 214 q 510 80 547 117 q 425 22 474 43 q 321 0 376 0 q 215 21 264 0 q 130 78 167 42 q 72 164 93 115 q 51 268 51 213 l 51 921 q 73 1027 51 978 q 131 1113 94 1076 q 217 1169 168 1149 q 321 1190 265 1190 q 424 1169 375 1190 q 510 1111 474 1147 q 567 1026 546 1075 q 589 921 589 976 l 589 268 m 289 1313 q 268 1273 289 1289 q 214 1257 247 1257 q 160 1273 182 1257 q 139 1313 139 1289 q 160 1353 139 1336 q 214 1371 182 1371 q 268 1353 247 1371 q 289 1313 289 1336 m 503 1313 q 481 1273 503 1289 q 428 1257 458 1257 q 372 1273 394 1257 q 350 1313 350 1289 q 372 1353 350 1336 q 428 1371 394 1371 q 481 1353 458 1371 q 503 1313 503 1336 z "},"Ø":{"ha":642,"x_min":51,"x_max":589,"o":"m 569 1190 l 535 1083 q 589 921 589 1014 l 589 268 q 567 164 589 213 q 509 78 546 115 q 424 21 472 42 q 321 0 375 0 q 190 32 251 0 l 179 0 l 71 0 l 106 106 q 51 268 51 174 l 51 921 q 73 1025 51 976 q 131 1110 94 1074 q 216 1169 167 1147 q 321 1190 265 1190 q 454 1154 393 1190 l 467 1190 l 569 1190 m 349 921 q 321 950 349 950 q 292 921 292 950 l 292 665 l 349 835 l 349 921 m 349 515 l 292 342 l 292 268 q 321 240 292 240 q 349 268 349 240 l 349 515 z "},"Ù":{"ha":642,"x_min":51,"x_max":589,"o":"m 51 0 m 589 268 q 568 165 589 214 q 510 80 547 117 q 425 22 474 43 q 321 0 376 0 q 215 21 264 0 q 130 78 167 42 q 72 164 93 115 q 51 268 51 213 l 51 1190 l 292 1190 l 292 268 q 321 240 292 240 q 349 268 349 240 l 349 1190 l 589 1190 l 589 268 m 381 1375 l 411 1276 l 331 1276 l 229 1375 l 381 1375 z "},"Ú":{"ha":642,"x_min":51,"x_max":589,"o":"m 51 0 m 589 268 q 568 165 589 214 q 510 80 547 117 q 425 22 474 43 q 321 0 376 0 q 215 21 264 0 q 130 78 167 42 q 72 164 93 115 q 51 268 51 213 l 51 1190 l 292 1190 l 292 268 q 321 240 292 240 q 349 268 349 240 l 349 1190 l 589 1190 l 589 268 m 421 1375 l 321 1276 l 239 1276 l 271 1375 l 421 1375 z "},"Û":{"ha":642,"x_min":51,"x_max":589,"o":"m 51 0 m 589 268 q 568 165 589 214 q 510 80 547 117 q 425 22 474 43 q 321 0 376 0 q 215 21 264 0 q 130 78 167 42 q 72 164 93 115 q 51 268 51 213 l 51 1190 l 292 1190 l 292 268 q 321 240 292 240 q 349 268 349 240 l 349 1190 l 589 1190 l 589 268 m 494 1261 l 399 1261 l 321 1331 l 249 1261 l 149 1261 l 254 1375 l 388 1375 l 494 1261 z "},"Ü":{"ha":642,"x_min":51,"x_max":589,"o":"m 51 0 m 589 268 q 568 165 589 214 q 510 80 547 117 q 425 22 474 43 q 321 0 376 0 q 215 21 264 0 q 130 78 167 42 q 72 164 93 115 q 51 268 51 213 l 51 1190 l 292 1190 l 292 268 q 321 240 292 240 q 349 268 349 240 l 349 1190 l 589 1190 l 589 268 m 289 1313 q 268 1273 289 1289 q 214 1257 247 1257 q 160 1273 182 1257 q 139 1313 139 1289 q 160 1353 139 1336 q 214 1371 182 1371 q 268 1353 247 1371 q 289 1313 289 1336 m 503 1313 q 481 1273 503 1289 q 428 1257 458 1257 q 372 1273 394 1257 q 350 1313 350 1289 q 372 1353 350 1336 q 428 1371 394 1371 q 481 1353 458 1371 q 503 1313 503 1336 z "},"Ý":{"ha":635,"x_min":3,"x_max":631,"o":"m 3 0 m 438 556 l 438 0 l 197 0 l 197 551 l 3 1190 l 250 1190 l 317 975 l 385 1190 l 631 1190 l 438 556 m 413 1375 l 313 1276 l 231 1276 l 263 1375 l 413 1375 z "},"Þ":{"ha":615,"x_min":44,"x_max":581,"o":"m 285 0 l 44 0 l 44 1190 l 285 1190 l 285 981 l 321 981 q 419 957 372 981 q 502 895 467 933 q 559 808 538 857 q 581 708 581 760 l 581 544 q 559 443 581 493 q 501 354 538 393 q 419 291 465 315 q 321 267 372 267 l 285 267 l 285 0 m 340 686 q 294 740 340 740 l 285 740 l 285 507 l 294 507 q 327 526 314 507 q 340 564 340 544 l 340 686 z "},"ß":{"ha":604,"x_min":35,"x_max":571,"o":"m 571 268 q 306 0 571 0 l 306 240 l 313 240 q 331 268 331 240 l 331 444 q 311 475 331 475 l 306 475 l 306 715 q 331 746 331 715 l 331 921 q 303 950 331 950 q 275 921 275 950 l 275 0 l 35 0 l 35 921 q 56 1027 35 978 q 115 1113 78 1076 q 200 1169 151 1149 q 303 1190 249 1190 q 406 1169 357 1190 q 491 1112 454 1149 q 549 1026 528 1075 q 571 921 571 976 l 571 739 q 496 596 571 660 q 571 463 571 533 l 571 268 z "},"à":{"ha":665,"x_min":32,"x_max":657,"o":"m 32 0 m 328 436 q 271 351 271 399 l 271 268 q 300 240 271 240 q 328 268 328 240 l 328 436 m 657 121 q 628 37 657 71 q 550 3 599 3 q 456 74 472 3 q 300 0 406 0 q 196 21 244 0 q 110 78 147 42 q 53 164 74 115 q 32 268 32 213 q 108 450 32 375 q 160 488 124 465 q 233 531 196 510 q 299 570 271 553 q 328 594 328 588 l 328 686 q 299 719 328 719 q 269 665 269 719 l 269 644 q 271 634 271 638 q 271 629 271 631 l 47 629 l 47 686 q 113 881 47 808 q 300 954 178 954 q 403 933 354 954 q 489 875 453 911 q 547 790 525 839 q 568 686 568 740 l 568 240 l 657 240 l 657 121 m 393 1139 l 424 1040 l 343 1040 l 242 1139 l 393 1139 z "},"á":{"ha":665,"x_min":32,"x_max":657,"o":"m 32 0 m 328 436 q 271 351 271 399 l 271 268 q 300 240 271 240 q 328 268 328 240 l 328 436 m 657 121 q 628 37 657 71 q 550 3 599 3 q 456 74 472 3 q 300 0 406 0 q 196 21 244 0 q 110 78 147 42 q 53 164 74 115 q 32 268 32 213 q 108 450 32 375 q 160 488 124 465 q 233 531 196 510 q 299 570 271 553 q 328 594 328 588 l 328 686 q 299 719 328 719 q 269 665 269 719 l 269 644 q 271 634 271 638 q 271 629 271 631 l 47 629 l 47 686 q 113 881 47 808 q 300 954 178 954 q 403 933 354 954 q 489 875 453 911 q 547 790 525 839 q 568 686 568 740 l 568 240 l 657 240 l 657 121 m 432 1139 l 332 1040 l 250 1040 l 282 1139 l 432 1139 z "},"â":{"ha":665,"x_min":32,"x_max":657,"o":"m 32 0 m 328 436 q 271 351 271 399 l 271 268 q 300 240 271 240 q 328 268 328 240 l 328 436 m 657 121 q 628 37 657 71 q 550 3 599 3 q 456 74 472 3 q 300 0 406 0 q 196 21 244 0 q 110 78 147 42 q 53 164 74 115 q 32 268 32 213 q 108 450 32 375 q 160 488 124 465 q 233 531 196 510 q 299 570 271 553 q 328 594 328 588 l 328 686 q 299 719 328 719 q 269 665 269 719 l 269 644 q 271 634 271 638 q 271 629 271 631 l 47 629 l 47 686 q 113 881 47 808 q 300 954 178 954 q 403 933 354 954 q 489 875 453 911 q 547 790 525 839 q 568 686 568 740 l 568 240 l 657 240 l 657 121 m 506 1025 l 410 1025 l 332 1094 l 260 1025 l 160 1025 l 265 1139 l 399 1139 l 506 1025 z "},"ã":{"ha":665,"x_min":32,"x_max":657,"o":"m 32 0 m 328 436 q 271 351 271 399 l 271 268 q 300 240 271 240 q 328 268 328 240 l 328 436 m 657 121 q 628 37 657 71 q 550 3 599 3 q 456 74 472 3 q 300 0 406 0 q 196 21 244 0 q 110 78 147 42 q 53 164 74 115 q 32 268 32 213 q 108 450 32 375 q 160 488 124 465 q 233 531 196 510 q 299 570 271 553 q 328 594 328 588 l 328 686 q 299 719 328 719 q 269 665 269 719 l 269 644 q 271 634 271 638 q 271 629 271 631 l 47 629 l 47 686 q 113 881 47 808 q 300 954 178 954 q 403 933 354 954 q 489 875 453 911 q 547 790 525 839 q 568 686 568 740 l 568 240 l 657 240 l 657 121 m 494 1139 q 407 1025 457 1025 q 380 1035 397 1025 q 344 1056 363 1044 q 311 1076 326 1067 q 290 1086 296 1086 q 251 1028 265 1086 l 172 1028 q 249 1142 203 1142 q 276 1132 258 1142 q 312 1110 293 1122 q 347 1088 331 1097 q 369 1078 363 1078 q 421 1139 401 1078 l 494 1139 z "},"ä":{"ha":665,"x_min":32,"x_max":657,"o":"m 32 0 m 328 436 q 271 351 271 399 l 271 268 q 300 240 271 240 q 328 268 328 240 l 328 436 m 657 121 q 628 37 657 71 q 550 3 599 3 q 456 74 472 3 q 300 0 406 0 q 196 21 244 0 q 110 78 147 42 q 53 164 74 115 q 32 268 32 213 q 108 450 32 375 q 160 488 124 465 q 233 531 196 510 q 299 570 271 553 q 328 594 328 588 l 328 686 q 299 719 328 719 q 269 665 269 719 l 269 644 q 271 634 271 638 q 271 629 271 631 l 47 629 l 47 686 q 113 881 47 808 q 300 954 178 954 q 403 933 354 954 q 489 875 453 911 q 547 790 525 839 q 568 686 568 740 l 568 240 l 657 240 l 657 121 m 301 1076 q 281 1037 301 1053 q 226 1021 260 1021 q 173 1037 194 1021 q 151 1076 151 1053 q 173 1117 151 1100 q 226 1135 194 1135 q 281 1117 260 1135 q 301 1076 301 1100 m 515 1076 q 493 1037 515 1053 q 440 1021 471 1021 q 385 1037 407 1021 q 363 1076 363 1053 q 385 1117 363 1100 q 440 1135 407 1135 q 493 1117 471 1135 q 515 1076 515 1100 z "},"å":{"ha":665,"x_min":32,"x_max":657,"o":"m 32 0 m 328 436 q 271 351 271 399 l 271 268 q 300 240 271 240 q 328 268 328 240 l 328 436 m 657 121 q 628 37 657 71 q 550 3 599 3 q 456 74 472 3 q 300 0 406 0 q 196 21 244 0 q 110 78 147 42 q 53 164 74 115 q 32 268 32 213 q 108 450 32 375 q 160 488 124 465 q 233 531 196 510 q 299 570 271 553 q 328 594 328 588 l 328 686 q 299 719 328 719 q 269 665 269 719 l 269 644 q 271 634 271 638 q 271 629 271 631 l 47 629 l 47 686 q 113 881 47 808 q 300 954 178 954 q 403 933 354 954 q 489 875 453 911 q 547 790 525 839 q 568 686 568 740 l 568 240 l 657 240 l 657 121 m 276 1072 q 293 1033 276 1049 q 333 1017 310 1017 q 375 1033 358 1017 q 392 1072 392 1049 q 375 1111 392 1096 q 333 1126 358 1126 q 293 1111 310 1126 q 276 1072 276 1096 m 440 1072 q 408 1002 440 1029 q 332 975 375 975 q 258 1002 289 975 q 226 1072 226 1029 q 258 1140 226 1113 q 332 1168 289 1168 q 408 1140 375 1168 q 440 1072 440 1113 z "},"æ":{"ha":940,"x_min":50,"x_max":890,"o":"m 347 436 q 290 351 290 399 l 290 268 q 318 240 290 240 q 347 268 347 240 l 347 436 m 650 686 q 621 714 650 714 q 592 686 592 714 l 592 564 l 650 564 l 650 686 m 460 53 q 318 0 411 0 q 214 21 263 0 q 128 78 165 42 q 71 164 92 115 q 50 268 50 213 q 61 349 50 313 q 99 419 72 386 q 167 483 125 453 q 269 542 208 513 q 347 594 347 579 l 347 686 q 318 719 347 719 q 289 664 289 719 l 289 643 q 290 633 290 636 q 290 629 290 631 l 65 629 l 65 686 q 131 881 65 808 q 318 954 196 954 q 469 907 401 954 q 621 954 538 954 q 724 933 675 954 q 810 875 772 911 q 869 790 847 839 q 890 686 890 742 l 890 486 l 592 486 l 592 268 q 621 240 592 240 q 650 268 650 240 l 650 375 l 890 375 l 890 268 q 869 164 890 213 q 810 78 847 115 q 725 21 774 42 q 621 0 676 0 q 460 53 532 0 z "},"ç":{"ha":607,"x_min":33,"x_max":571,"o":"m 33 0 m 571 268 q 549 165 571 214 q 492 79 528 115 q 407 22 456 43 q 303 0 358 0 q 198 21 247 0 q 113 78 149 42 q 55 164 76 115 q 33 268 33 213 l 33 686 q 55 790 33 742 q 113 875 76 839 q 199 933 150 911 q 303 954 249 954 q 406 933 357 954 q 491 875 454 911 q 549 790 528 839 q 571 686 571 742 l 571 546 l 331 546 l 331 686 q 303 714 331 714 q 274 686 274 714 l 274 268 q 303 240 274 240 q 331 268 331 240 l 331 435 l 571 435 l 571 268 m 401 -136 q 283 -242 401 -242 q 204 -233 254 -242 l 204 -128 q 283 -92 283 -128 q 278 -65 283 -83 q 274 -36 274 -47 q 315 38 274 1 l 381 38 q 346 -24 346 -6 q 354 -36 346 -28 q 373 -58 363 -44 q 392 -91 383 -72 q 401 -136 401 -110 z "},"è":{"ha":607,"x_min":33,"x_max":571,"o":"m 33 0 m 331 686 q 303 714 331 714 q 274 686 274 714 l 274 564 l 331 564 l 331 686 m 571 268 q 549 165 571 214 q 492 79 528 115 q 407 22 456 43 q 303 0 358 0 q 198 21 247 0 q 113 78 149 42 q 55 164 76 115 q 33 268 33 213 l 33 686 q 55 790 33 742 q 113 875 76 839 q 199 933 150 911 q 303 954 249 954 q 406 933 357 954 q 491 875 454 911 q 549 790 528 839 q 571 686 571 742 l 571 486 l 274 486 l 274 268 q 303 240 274 240 q 331 268 331 240 l 331 375 l 571 375 l 571 268 m 363 1139 l 393 1040 l 313 1040 l 211 1139 l 363 1139 z "},"é":{"ha":607,"x_min":33,"x_max":571,"o":"m 33 0 m 331 686 q 303 714 331 714 q 274 686 274 714 l 274 564 l 331 564 l 331 686 m 571 268 q 549 165 571 214 q 492 79 528 115 q 407 22 456 43 q 303 0 358 0 q 198 21 247 0 q 113 78 149 42 q 55 164 76 115 q 33 268 33 213 l 33 686 q 55 790 33 742 q 113 875 76 839 q 199 933 150 911 q 303 954 249 954 q 406 933 357 954 q 491 875 454 911 q 549 790 528 839 q 571 686 571 742 l 571 486 l 274 486 l 274 268 q 303 240 274 240 q 331 268 331 240 l 331 375 l 571 375 l 571 268 m 403 1139 l 303 1040 l 221 1040 l 253 1139 l 403 1139 z "},"ê":{"ha":607,"x_min":33,"x_max":571,"o":"m 33 0 m 331 686 q 303 714 331 714 q 274 686 274 714 l 274 564 l 331 564 l 331 686 m 571 268 q 549 165 571 214 q 492 79 528 115 q 407 22 456 43 q 303 0 358 0 q 198 21 247 0 q 113 78 149 42 q 55 164 76 115 q 33 268 33 213 l 33 686 q 55 790 33 742 q 113 875 76 839 q 199 933 150 911 q 303 954 249 954 q 406 933 357 954 q 491 875 454 911 q 549 790 528 839 q 571 686 571 742 l 571 486 l 274 486 l 274 268 q 303 240 274 240 q 331 268 331 240 l 331 375 l 571 375 l 571 268 m 476 1025 l 381 1025 l 303 1094 l 231 1025 l 131 1025 l 236 1139 l 369 1139 l 476 1025 z "},"ë":{"ha":607,"x_min":33,"x_max":571,"o":"m 33 0 m 331 686 q 303 714 331 714 q 274 686 274 714 l 274 564 l 331 564 l 331 686 m 571 268 q 549 165 571 214 q 492 79 528 115 q 407 22 456 43 q 303 0 358 0 q 198 21 247 0 q 113 78 149 42 q 55 164 76 115 q 33 268 33 213 l 33 686 q 55 790 33 742 q 113 875 76 839 q 199 933 150 911 q 303 954 249 954 q 406 933 357 954 q 491 875 454 911 q 549 790 528 839 q 571 686 571 742 l 571 486 l 274 486 l 274 268 q 303 240 274 240 q 331 268 331 240 l 331 375 l 571 375 l 571 268 m 271 1076 q 250 1037 271 1053 q 196 1021 229 1021 q 142 1037 164 1021 q 121 1076 121 1053 q 142 1117 121 1100 q 196 1135 164 1135 q 250 1117 229 1135 q 271 1076 271 1100 m 485 1076 q 463 1037 485 1053 q 410 1021 440 1021 q 354 1037 376 1021 q 332 1076 332 1053 q 354 1117 332 1100 q 410 1135 376 1135 q 463 1117 440 1135 q 485 1076 485 1100 z "},"ì":{"ha":361,"x_min":51,"x_max":292,"o":"m 51 0 m 292 0 l 51 0 l 51 954 l 292 954 l 292 0 m 249 1139 l 279 1040 l 199 1040 l 97 1139 l 249 1139 z "},"í":{"ha":361,"x_min":51,"x_max":292,"o":"m 51 0 m 292 0 l 51 0 l 51 954 l 292 954 l 292 0 m 279 1139 l 179 1040 l 97 1040 l 129 1139 l 279 1139 z "},"î":{"ha":361,"x_min":17,"x_max":363,"o":"m 17 0 m 292 0 l 51 0 l 51 954 l 292 954 l 292 0 m 363 1025 l 267 1025 l 189 1094 l 117 1025 l 17 1025 l 122 1139 l 256 1139 l 363 1025 z "},"ï":{"ha":361,"x_min":7,"x_max":371,"o":"m 7 0 m 292 0 l 51 0 l 51 954 l 292 954 l 292 0 m 157 1076 q 136 1037 157 1053 q 82 1021 115 1021 q 28 1037 50 1021 q 7 1076 7 1053 q 28 1117 7 1100 q 82 1135 50 1135 q 136 1117 115 1135 q 157 1076 157 1100 m 371 1076 q 349 1037 371 1053 q 296 1021 326 1021 q 240 1037 263 1021 q 218 1076 218 1053 q 240 1117 218 1100 q 296 1135 263 1135 q 349 1117 326 1135 q 371 1076 371 1100 z "},"ð":{"ha":607,"x_min":33,"x_max":571,"o":"m 571 268 q 550 165 571 214 q 492 80 529 117 q 407 22 456 43 q 303 0 358 0 q 199 21 249 0 q 113 78 150 42 q 55 164 76 115 q 33 268 33 213 l 33 686 q 55 791 33 742 q 113 876 76 840 q 199 933 150 913 q 303 954 249 954 q 396 944 357 954 q 457 903 435 933 q 397 1015 443 978 q 294 1051 350 1051 q 220 1034 257 1051 q 157 985 183 1017 l 93 1194 q 201 1241 149 1226 q 299 1256 253 1256 q 411 1231 361 1256 q 497 1160 461 1206 q 551 1053 532 1115 q 571 917 571 990 l 571 268 m 331 686 q 303 714 331 714 q 274 686 274 714 l 274 268 q 303 240 274 240 q 331 268 331 240 l 331 686 z "},"ñ":{"ha":631,"x_min":53,"x_max":592,"o":"m 53 0 m 592 0 l 351 0 l 351 686 q 322 714 351 714 q 293 686 293 714 l 293 0 l 53 0 l 53 954 q 168 926 129 926 q 194 930 174 926 q 250 944 214 933 q 283 951 265 949 q 322 954 301 954 q 425 933 376 954 q 511 875 474 911 q 570 790 549 839 q 592 686 592 742 l 592 0 m 476 1139 q 389 1025 439 1025 q 362 1035 379 1025 q 326 1056 344 1044 q 293 1076 308 1067 q 272 1086 278 1086 q 233 1028 247 1086 l 154 1028 q 231 1142 185 1142 q 258 1132 240 1142 q 294 1110 275 1122 q 328 1088 313 1097 q 351 1078 344 1078 q 403 1139 383 1078 l 476 1139 z "},"ò":{"ha":607,"x_min":33,"x_max":571,"o":"m 33 0 m 331 686 q 303 714 331 714 q 274 686 274 714 l 274 268 q 303 240 274 240 q 331 268 331 240 l 331 686 m 571 268 q 549 165 571 214 q 492 79 528 115 q 407 22 456 43 q 303 0 358 0 q 198 21 247 0 q 113 78 149 42 q 55 164 76 115 q 33 268 33 213 l 33 686 q 55 790 33 742 q 113 875 76 839 q 199 933 150 911 q 303 954 249 954 q 406 933 357 954 q 491 875 454 911 q 549 790 528 839 q 571 686 571 742 l 571 268 m 363 1139 l 393 1040 l 313 1040 l 211 1139 l 363 1139 z "},"ó":{"ha":607,"x_min":33,"x_max":571,"o":"m 33 0 m 331 686 q 303 714 331 714 q 274 686 274 714 l 274 268 q 303 240 274 240 q 331 268 331 240 l 331 686 m 571 268 q 549 165 571 214 q 492 79 528 115 q 407 22 456 43 q 303 0 358 0 q 198 21 247 0 q 113 78 149 42 q 55 164 76 115 q 33 268 33 213 l 33 686 q 55 790 33 742 q 113 875 76 839 q 199 933 150 911 q 303 954 249 954 q 406 933 357 954 q 491 875 454 911 q 549 790 528 839 q 571 686 571 742 l 571 268 m 403 1139 l 303 1040 l 221 1040 l 253 1139 l 403 1139 z "},"ô":{"ha":607,"x_min":33,"x_max":571,"o":"m 33 0 m 331 686 q 303 714 331 714 q 274 686 274 714 l 274 268 q 303 240 274 240 q 331 268 331 240 l 331 686 m 571 268 q 549 165 571 214 q 492 79 528 115 q 407 22 456 43 q 303 0 358 0 q 198 21 247 0 q 113 78 149 42 q 55 164 76 115 q 33 268 33 213 l 33 686 q 55 790 33 742 q 113 875 76 839 q 199 933 150 911 q 303 954 249 954 q 406 933 357 954 q 491 875 454 911 q 549 790 528 839 q 571 686 571 742 l 571 268 m 476 1025 l 381 1025 l 303 1094 l 231 1025 l 131 1025 l 236 1139 l 369 1139 l 476 1025 z "},"õ":{"ha":607,"x_min":33,"x_max":571,"o":"m 33 0 m 331 686 q 303 714 331 714 q 274 686 274 714 l 274 268 q 303 240 274 240 q 331 268 331 240 l 331 686 m 571 268 q 549 165 571 214 q 492 79 528 115 q 407 22 456 43 q 303 0 358 0 q 198 21 247 0 q 113 78 149 42 q 55 164 76 115 q 33 268 33 213 l 33 686 q 55 790 33 742 q 113 875 76 839 q 199 933 150 911 q 303 954 249 954 q 406 933 357 954 q 491 875 454 911 q 549 790 528 839 q 571 686 571 742 l 571 268 m 474 1139 q 386 1025 436 1025 q 359 1035 376 1025 q 324 1056 342 1044 q 290 1076 306 1067 q 269 1086 275 1086 q 231 1028 244 1086 l 151 1028 q 228 1142 182 1142 q 255 1132 238 1142 q 291 1110 272 1122 q 326 1088 310 1097 q 349 1078 342 1078 q 400 1139 381 1078 l 474 1139 z "},"ö":{"ha":607,"x_min":33,"x_max":571,"o":"m 33 0 m 331 686 q 303 714 331 714 q 274 686 274 714 l 274 268 q 303 240 274 240 q 331 268 331 240 l 331 686 m 571 268 q 549 165 571 214 q 492 79 528 115 q 407 22 456 43 q 303 0 358 0 q 198 21 247 0 q 113 78 149 42 q 55 164 76 115 q 33 268 33 213 l 33 686 q 55 790 33 742 q 113 875 76 839 q 199 933 150 911 q 303 954 249 954 q 406 933 357 954 q 491 875 454 911 q 549 790 528 839 q 571 686 571 742 l 571 268 m 271 1076 q 250 1037 271 1053 q 196 1021 229 1021 q 142 1037 164 1021 q 121 1076 121 1053 q 142 1117 121 1100 q 196 1135 164 1135 q 250 1117 229 1135 q 271 1076 271 1100 m 485 1076 q 463 1037 485 1053 q 410 1021 440 1021 q 354 1037 376 1021 q 332 1076 332 1053 q 354 1117 332 1100 q 410 1135 376 1135 q 463 1117 440 1135 q 485 1076 485 1100 z "},"ø":{"ha":607,"x_min":33,"x_max":571,"o":"m 554 964 l 510 856 q 571 686 571 782 l 571 268 q 550 165 571 214 q 492 80 529 117 q 407 22 456 43 q 303 0 358 0 q 174 32 235 0 l 156 -14 l 46 -14 l 93 99 q 33 268 33 171 l 33 686 q 55 791 33 742 q 113 876 76 840 q 199 933 150 913 q 303 954 249 954 q 432 921 371 954 l 449 964 l 554 964 m 331 686 q 303 714 331 714 q 274 686 274 714 l 274 536 l 331 678 l 331 686 m 331 415 l 274 268 q 303 240 274 240 q 331 268 331 240 l 331 415 z "},"ù":{"ha":650,"x_min":51,"x_max":589,"o":"m 51 0 m 589 0 q 479 33 522 33 q 449 28 469 33 q 406 16 429 22 q 360 5 383 10 q 321 0 336 0 q 215 21 264 0 q 130 78 167 42 q 72 164 93 115 q 51 268 51 213 l 51 954 l 292 954 l 292 268 q 321 240 292 240 q 349 268 349 240 l 349 954 l 589 954 l 589 0 m 385 1139 l 415 1040 l 335 1040 l 233 1139 l 385 1139 z "},"ú":{"ha":650,"x_min":51,"x_max":589,"o":"m 51 0 m 589 0 q 479 33 522 33 q 449 28 469 33 q 406 16 429 22 q 360 5 383 10 q 321 0 336 0 q 215 21 264 0 q 130 78 167 42 q 72 164 93 115 q 51 268 51 213 l 51 954 l 292 954 l 292 268 q 321 240 292 240 q 349 268 349 240 l 349 954 l 589 954 l 589 0 m 424 1139 l 324 1040 l 242 1040 l 274 1139 l 424 1139 z "},"û":{"ha":650,"x_min":51,"x_max":589,"o":"m 51 0 m 589 0 q 479 33 522 33 q 449 28 469 33 q 406 16 429 22 q 360 5 383 10 q 321 0 336 0 q 215 21 264 0 q 130 78 167 42 q 72 164 93 115 q 51 268 51 213 l 51 954 l 292 954 l 292 268 q 321 240 292 240 q 349 268 349 240 l 349 954 l 589 954 l 589 0 m 497 1025 l 401 1025 l 324 1094 l 251 1025 l 151 1025 l 257 1139 l 390 1139 l 497 1025 z "},"ü":{"ha":650,"x_min":51,"x_max":589,"o":"m 51 0 m 589 0 q 479 33 522 33 q 449 28 469 33 q 406 16 429 22 q 360 5 383 10 q 321 0 336 0 q 215 21 264 0 q 130 78 167 42 q 72 164 93 115 q 51 268 51 213 l 51 954 l 292 954 l 292 268 q 321 240 292 240 q 349 268 349 240 l 349 954 l 589 954 l 589 0 m 293 1076 q 272 1037 293 1053 q 218 1021 251 1021 q 165 1037 186 1021 q 143 1076 143 1053 q 165 1117 143 1100 q 218 1135 186 1135 q 272 1117 251 1135 q 293 1076 293 1100 m 507 1076 q 485 1037 507 1053 q 432 1021 463 1021 q 376 1037 399 1021 q 354 1076 354 1053 q 376 1117 354 1100 q 432 1135 399 1135 q 485 1117 463 1135 q 507 1076 507 1100 z "},"ý":{"ha":593,"x_min":19,"x_max":579,"o":"m 19 0 m 579 954 l 351 -261 l 113 -261 l 179 57 l 19 954 l 258 954 l 300 751 l 340 954 l 579 954 m 396 1139 l 296 1040 l 214 1040 l 246 1139 l 396 1139 z "},"þ":{"ha":607,"x_min":33,"x_max":571,"o":"m 571 268 q 550 163 571 211 q 492 78 529 114 q 403 21 454 42 q 294 0 353 0 l 274 0 l 274 -261 l 33 -261 l 33 1213 l 274 1213 l 274 953 q 288 954 281 954 q 303 954 294 954 q 407 933 358 954 q 492 874 456 911 q 550 789 529 838 q 571 686 571 740 l 571 268 m 331 686 q 303 714 331 714 q 274 690 276 714 l 274 268 q 303 239 274 239 q 331 268 331 239 l 331 686 z "},"ÿ":{"ha":593,"x_min":19,"x_max":579,"o":"m 19 0 m 579 954 l 351 -261 l 113 -261 l 179 57 l 19 954 l 258 954 l 300 751 l 340 954 l 579 954 m 265 1076 q 244 1037 265 1053 q 190 1021 224 1021 q 137 1037 158 1021 q 115 1076 115 1053 q 137 1117 115 1100 q 190 1135 158 1135 q 244 1117 224 1135 q 265 1076 265 1100 m 479 1076 q 457 1037 479 1053 q 404 1021 435 1021 q 349 1037 371 1021 q 326 1076 326 1053 q 349 1117 326 1100 q 404 1135 371 1135 q 457 1117 435 1135 q 479 1076 479 1100 z "},"ı":{"ha":361,"x_min":51,"x_max":292,"o":"m 292 0 l 51 0 l 51 954 l 292 954 l 292 0 z "},"Œ":{"ha":889,"x_min":46,"x_max":843,"o":"m 843 0 l 347 1 q 331 0 339 0 q 314 0 322 0 q 210 21 258 0 q 124 78 161 42 q 67 164 88 115 q 46 268 46 213 l 46 921 q 67 1027 46 978 q 126 1113 89 1076 q 211 1169 163 1149 q 314 1190 260 1190 q 331 1190 322 1190 q 347 1188 339 1189 l 347 1190 l 843 1190 l 843 950 l 588 950 l 588 715 l 722 715 l 722 475 l 588 475 l 588 240 l 843 240 l 843 0 m 342 921 q 314 950 342 950 q 286 921 286 950 l 286 268 q 314 240 286 240 q 342 268 342 240 l 342 921 z "},"œ":{"ha":922,"x_min":43,"x_max":876,"o":"m 876 268 q 855 164 876 213 q 797 78 833 115 q 711 21 760 42 q 607 0 663 0 q 458 43 522 0 q 311 0 394 0 q 206 21 254 0 q 121 78 157 42 q 64 164 85 115 q 43 268 43 213 l 43 686 q 64 790 43 740 q 121 875 85 839 q 206 933 157 911 q 311 954 254 954 q 458 910 394 954 q 607 954 524 954 q 711 933 663 954 q 797 875 760 911 q 855 790 833 839 q 876 686 876 740 l 876 486 l 579 486 l 579 263 q 607 240 581 240 q 636 268 636 240 l 636 375 l 876 375 l 876 268 m 311 714 q 282 686 282 714 l 282 268 q 311 240 282 240 q 339 263 338 240 l 339 686 q 311 714 339 714 m 636 686 q 607 714 636 714 q 579 686 579 714 l 579 564 l 636 564 l 636 686 z "},"Š":{"ha":650,"x_min":51,"x_max":589,"o":"m 51 0 m 589 268 q 568 165 589 214 q 510 80 547 117 q 425 22 474 43 q 321 0 376 0 q 215 21 264 0 q 130 78 167 42 q 72 164 93 115 q 51 268 51 213 l 51 400 l 292 400 l 292 268 q 321 240 292 240 q 349 268 349 240 q 271 481 349 400 l 129 617 q 51 921 51 724 q 73 1027 51 978 q 131 1113 94 1076 q 217 1169 168 1149 q 321 1190 265 1190 q 424 1169 375 1190 q 510 1111 474 1147 q 567 1026 546 1075 q 589 921 589 976 l 589 789 l 349 789 l 349 921 q 321 950 349 950 q 292 921 292 950 q 311 808 292 858 q 362 715 331 758 q 433 633 393 672 q 511 556 472 594 q 589 268 589 446 m 150 1374 l 246 1374 l 325 1306 l 397 1374 l 497 1374 l 390 1260 l 257 1260 l 150 1374 z "},"š":{"ha":608,"x_min":36,"x_max":572,"o":"m 572 268 q 551 165 572 214 q 494 80 531 117 q 408 22 457 43 q 304 0 360 0 q 200 21 249 0 q 115 78 151 42 q 57 164 78 115 q 36 268 36 213 l 36 347 l 276 347 l 276 268 q 304 240 276 240 q 333 268 333 240 q 312 338 333 306 q 258 397 290 369 q 187 448 226 424 q 113 496 147 472 q 36 697 36 568 q 58 801 36 753 q 116 887 79 850 q 201 944 153 924 q 304 965 250 965 q 408 944 358 965 q 493 886 457 922 q 551 801 529 850 q 572 697 572 751 l 572 617 l 333 617 l 333 697 q 304 725 333 725 q 276 697 276 725 q 353 558 276 608 l 496 472 q 572 268 572 404 m 131 1138 l 226 1138 l 304 1069 l 376 1138 l 478 1138 l 371 1024 l 238 1024 l 131 1138 z "},"Ÿ":{"ha":635,"x_min":3,"x_max":631,"o":"m 3 0 m 438 556 l 438 0 l 197 0 l 197 551 l 3 1190 l 250 1190 l 317 975 l 385 1190 l 631 1190 l 438 556 m 286 1313 q 265 1273 286 1289 q 211 1257 244 1257 q 158 1273 179 1257 q 136 1313 136 1289 q 158 1353 136 1336 q 211 1371 179 1371 q 265 1353 244 1371 q 286 1313 286 1336 m 500 1313 q 478 1273 500 1289 q 425 1257 456 1257 q 369 1273 392 1257 q 347 1313 347 1289 q 369 1353 347 1336 q 425 1371 392 1371 q 478 1353 456 1371 q 500 1313 500 1336 z "},"Ž":{"ha":600,"x_min":33,"x_max":569,"o":"m 33 0 m 569 0 l 33 0 l 33 161 l 286 950 l 33 950 l 33 1190 l 569 1190 l 569 1028 l 315 240 l 569 240 l 569 0 m 125 1374 l 221 1374 l 300 1306 l 372 1374 l 472 1374 l 365 1260 l 232 1260 l 125 1374 z "},"ž":{"ha":619,"x_min":44,"x_max":581,"o":"m 44 0 m 581 0 l 44 0 l 44 167 l 293 714 l 44 714 l 44 954 l 581 954 l 581 788 l 331 240 l 581 240 l 581 0 m 136 1138 l 232 1138 l 311 1069 l 383 1138 l 483 1138 l 376 1024 l 243 1024 l 136 1138 z "},"ˆ":{"ha":521,"x_min":104,"x_max":450,"o":"m 450 1025 l 354 1025 l 276 1094 l 204 1025 l 104 1025 l 210 1139 l 343 1139 l 450 1025 z "},"ˇ":{"ha":521,"x_min":101,"x_max":449,"o":"m 101 1138 l 197 1138 l 276 1069 l 349 1138 l 449 1138 l 342 1024 l 208 1024 l 101 1138 z "},"˚":{"ha":485,"x_min":206,"x_max":419,"o":"m 256 1072 q 272 1033 256 1049 q 313 1017 289 1017 q 354 1033 338 1017 q 371 1072 371 1049 q 354 1111 371 1096 q 313 1126 338 1126 q 272 1111 289 1126 q 256 1072 256 1096 m 419 1072 q 387 1002 419 1029 q 311 975 354 975 q 237 1002 268 975 q 206 1072 206 1029 q 237 1140 206 1113 q 311 1168 268 1168 q 387 1140 354 1168 q 419 1072 419 1113 z "},"˜":{"ha":444,"x_min":153,"x_max":475,"o":"m 475 1139 q 388 1025 438 1025 q 360 1035 378 1025 q 325 1056 343 1044 q 292 1076 307 1067 q 271 1086 276 1086 q 232 1028 246 1086 l 153 1028 q 229 1142 183 1142 q 256 1132 239 1142 q 292 1110 274 1122 q 327 1088 311 1097 q 350 1078 343 1078 q 401 1139 382 1078 l 475 1139 z "},"‘":{"ha":282,"x_min":53,"x_max":254,"o":"m 53 1063 q 63 1142 53 1104 q 94 1208 74 1179 q 146 1256 115 1238 q 215 1281 176 1275 q 189 1219 189 1254 q 199 1181 189 1207 q 222 1126 210 1156 q 244 1070 233 1097 q 254 1028 254 1043 q 224 953 254 986 q 150 919 194 919 q 53 1063 53 919 z "},"’":{"ha":264,"x_min":25,"x_max":226,"o":"m 226 1138 q 216 1058 226 1096 q 185 992 206 1021 q 133 944 164 963 q 64 919 103 925 q 92 981 92 950 q 81 1019 92 993 q 58 1073 71 1044 q 35 1128 46 1101 q 25 1172 25 1156 q 55 1248 25 1215 q 129 1281 85 1281 q 226 1138 226 1281 z "},"‚":{"ha":264,"x_min":25,"x_max":226,"o":"m 226 169 q 216 90 226 128 q 185 24 206 53 q 133 -24 164 -6 q 64 -49 103 -43 q 92 13 92 -21 q 81 51 92 25 q 58 105 71 76 q 35 160 46 133 q 25 204 25 188 q 55 279 25 246 q 129 313 85 313 q 226 169 226 313 z "},"“":{"ha":436,"x_min":3,"x_max":415,"o":"m 215 1064 q 258 1215 215 1156 q 376 1283 300 1275 q 350 1222 350 1257 q 360 1185 350 1210 q 383 1131 371 1160 q 405 1075 394 1103 q 415 1031 415 1047 q 386 955 415 988 q 313 922 357 922 q 215 1064 215 922 m 3 1064 q 45 1215 3 1156 q 165 1283 88 1275 q 138 1222 138 1256 q 148 1185 138 1210 q 171 1131 158 1160 q 194 1075 183 1103 q 204 1031 204 1047 q 174 955 204 988 q 100 922 144 922 q 3 1064 3 922 z "},"”":{"ha":475,"x_min":28,"x_max":443,"o":"m 231 1138 q 187 988 231 1047 q 69 918 143 928 q 94 979 94 944 q 84 1017 94 992 q 61 1072 74 1043 q 38 1127 49 1100 q 28 1171 28 1154 q 58 1247 28 1215 q 133 1279 89 1279 q 231 1138 231 1279 m 443 1138 q 399 988 443 1049 q 281 918 356 928 q 306 979 306 944 q 295 1017 306 992 q 273 1072 285 1043 q 251 1127 261 1100 q 240 1171 240 1154 q 271 1247 240 1215 q 346 1279 301 1279 q 443 1138 443 1279 z "},"„":{"ha":475,"x_min":28,"x_max":443,"o":"m 231 169 q 187 19 231 79 q 69 -50 143 -40 q 94 11 94 -24 q 84 49 94 24 q 61 103 74 74 q 38 159 49 132 q 28 203 28 186 q 36 244 28 224 q 58 278 44 264 q 92 302 72 293 q 133 311 111 311 q 231 169 231 311 m 443 169 q 399 20 443 81 q 281 -50 356 -40 q 306 11 306 -24 q 295 49 306 24 q 273 103 285 74 q 251 159 261 132 q 240 203 240 186 q 249 244 240 224 q 271 278 257 264 q 304 302 285 293 q 346 311 324 311 q 443 169 443 311 z "},"•":{"ha":925,"x_min":39,"x_max":906,"o":"m 906 708 l 672 499 l 749 196 l 479 354 l 214 186 l 281 493 l 39 692 l 351 724 l 468 1015 l 593 726 l 906 708 z "},"…":{"ha":2100,"x_min":340,"x_max":1771,"o":"m 581 135 q 549 40 581 81 q 464 0 518 0 q 415 11 438 0 q 375 41 392 22 q 349 84 358 60 q 340 135 340 108 q 349 186 340 161 q 375 229 358 211 q 415 258 392 247 q 464 269 438 269 q 549 230 518 269 q 581 135 581 190 m 1175 135 q 1144 40 1175 81 q 1060 0 1113 0 q 1009 11 1032 0 q 969 41 986 22 q 944 84 953 60 q 935 135 935 108 q 970 229 935 189 q 1060 269 1006 269 q 1144 230 1113 269 q 1175 135 1175 190 m 1771 135 q 1739 40 1771 81 q 1654 0 1707 0 q 1605 11 1628 0 q 1565 41 1582 22 q 1540 84 1549 60 q 1531 135 1531 108 q 1540 186 1531 161 q 1565 229 1549 211 q 1605 258 1582 247 q 1654 269 1628 269 q 1739 230 1707 269 q 1771 135 1771 190 z "},"‹":{"ha":361,"x_min":64,"x_max":310,"o":"m 149 532 l 310 457 l 310 363 l 64 483 l 64 576 l 310 703 l 310 606 l 149 532 z "},"›":{"ha":361,"x_min":64,"x_max":310,"o":"m 225 535 l 64 608 l 64 703 l 310 582 l 310 490 l 64 363 l 64 460 l 225 535 z "},"€":{"ha":650,"x_min":14,"x_max":589,"o":"m 589 268 q 568 165 589 214 q 510 80 547 117 q 425 22 474 43 q 321 0 376 0 q 215 21 264 0 q 130 78 167 42 q 72 164 93 115 q 51 268 51 213 l 51 488 l 14 488 l 14 607 l 51 607 l 51 699 l 14 699 l 14 818 l 51 818 l 51 921 q 73 1027 51 978 q 131 1113 94 1076 q 217 1169 168 1149 q 321 1190 265 1190 l 556 1190 l 485 950 l 321 950 q 292 921 292 950 l 292 818 l 447 818 l 413 699 l 292 699 l 292 607 l 386 607 l 351 488 l 292 488 l 292 268 q 321 240 292 240 q 349 268 349 240 l 349 396 l 589 396 l 589 268 z "},"™":{"ha":881,"x_min":68,"x_max":792,"o":"m 271 818 l 271 468 l 179 468 l 179 818 l 68 818 l 68 903 l 379 903 l 379 818 l 271 818 m 703 708 l 608 467 l 506 717 l 506 469 l 419 469 l 419 904 l 524 904 l 607 679 l 689 904 l 792 904 l 792 469 l 703 469 l 703 708 z "},"":{"ha":524,"x_min":-33,"x_max":546,"o":"m -33 347 l 160 792 q 124 935 124 872 q 158 1040 124 999 q 251 1082 193 1082 q 349 1048 310 1082 q 389 951 389 1014 q 338 792 389 881 l 521 347 q 546 228 546 286 q 528 136 546 178 q 478 63 510 94 q 406 15 447 32 q 317 -3 364 -3 q 253 6 283 -3 q 192 32 224 15 l 142 58 l 249 268 q 274 254 258 254 q 297 285 297 254 q 294 299 297 288 l 257 436 l 56 0 l -33 347 z "}}}
